<svg width="32" height="31" viewBox="0 0 32 31" fill="none" xmlns="http://www.w3.org/2000/svg">
<mask id="mask0_443_5412" style="mask-type:alpha" maskUnits="userSpaceOnUse" x="1" y="1" width="30" height="15">
<rect x="1.06665" y="1.06641" width="29.8667" height="14.9333" fill="white"/>
</mask>
<g mask="url(#mask0_443_5412)">
<path d="M1.86665 15.9997C1.86665 14.1437 2.23222 12.3059 2.94249 10.5911C3.65276 8.87641 4.69381 7.31836 6.00621 6.00596C7.31861 4.69356 8.87666 3.65251 10.5914 2.94224C12.3061 2.23197 14.144 1.86641 16 1.86641C17.856 1.86641 19.6939 2.23198 21.4086 2.94225C23.1233 3.65251 24.6814 4.69357 25.9938 6.00597C27.3062 7.31838 28.3472 8.87643 29.0575 10.5912C29.7678 12.3059 30.1333 14.1437 30.1333 15.9998" stroke="#E3813A" stroke-width="1.6" stroke-linecap="round"/>
</g>
<mask id="mask1_443_5412" style="mask-type:alpha" maskUnits="userSpaceOnUse" x="1" y="16" width="30" height="15">
<rect x="30.9333" y="30.9336" width="29.8667" height="14.9333" transform="rotate(180 30.9333 30.9336)" fill="white"/>
</mask>
<g mask="url(#mask1_443_5412)">
<path d="M30.1333 16.0003C30.1333 17.8563 29.7678 19.6941 29.0575 21.4089C28.3472 23.1236 27.3062 24.6816 25.9938 25.994C24.6814 27.3064 23.1233 28.3475 21.4086 29.0578C19.6939 29.768 17.856 30.1336 16 30.1336C14.144 30.1336 12.3061 29.768 10.5914 29.0578C8.87667 28.3475 7.31863 27.3064 6.00623 25.994C4.69383 24.6816 3.65277 23.1236 2.94251 21.4088C2.23224 19.6941 1.86668 17.8563 1.86668 16.0002" stroke="#E3813A" stroke-width="1.6" stroke-linecap="round"/>
</g>
<rect x="15.9889" y="15.123" width="9.06667" height="1.6" rx="0.8" transform="rotate(45 15.9889 15.123)" fill="#E3813A"/>
<rect x="22.4" y="10.998" width="9.06667" height="1.6" rx="0.8" transform="rotate(135 22.4 10.998)" fill="#E3813A"/>
<rect x="29.3333" y="15.1992" width="1.6" height="1.6" rx="0.8" fill="#E3813A"/>
<rect x="1.06665" y="15.1992" width="1.6" height="1.6" rx="0.8" fill="#E3813A"/>
<rect x="17.1425" y="16.2559" width="9.06667" height="1.6" rx="0.8" transform="rotate(135 17.1425 16.2559)" fill="#E3813A"/>
<rect x="10.7314" y="9.86719" width="9.06667" height="1.6" rx="0.8" transform="rotate(45 10.7314 9.86719)" fill="#E3813A"/>
</svg>
