<svg xmlns="http://www.w3.org/2000/svg" width="248" height="188" viewBox="0 0 248 188" fill="none">
  <g clip-path="url(#clip0_366_325)">
    <path d="M161.387 77.2653C160.85 77.3429 160.302 77.3017 159.782 77.1444C159.262 76.9871 158.783 76.7177 158.378 76.355C157.973 75.9924 157.653 75.5453 157.439 75.0453C157.226 74.5453 157.124 74.0045 157.142 73.4609L144.816 68.7184L150.397 64.7214L161.246 69.8377C162.156 69.9282 163.001 70.3498 163.622 71.0227C164.242 71.6956 164.595 72.5731 164.612 73.4887C164.63 74.4044 164.311 75.2947 163.716 75.9907C163.122 76.6868 162.293 77.1403 161.387 77.2653L161.387 77.2653Z" fill="#FFB7B7"/>
    <path d="M154.344 73.8632L156.269 67.0664L156.174 67.0018L138.148 54.7411L122.565 39.0861L113.488 42.7173L114.084 45.5939L114.123 45.6292L134.841 64.2093L134.86 64.2186L154.344 73.8632Z" fill="#E6E7E8"/>
    <path d="M135.877 89.3881L107.979 85.4725L110.435 68.3327H130.973L135.877 89.3881Z" fill="#FFB6B6"/>
    <path d="M88.4744 173.317L94.1973 174.649L102.05 153.181L93.6039 151.216L88.4744 173.317Z" fill="#FFB6B6"/>
    <path d="M83.1494 182.542L87.2534 183.497L88.8863 179.788L89.8621 184.104L100.747 186.637C101.269 186.758 101.816 186.709 102.308 186.498C102.8 186.286 103.211 185.922 103.482 185.459C103.753 184.997 103.87 184.46 103.814 183.926C103.759 183.393 103.534 182.891 103.174 182.494L95.8765 174.461L96.7868 170.539L87.5173 168.958L83.1494 182.542Z" fill="#2F2E41"/>
    <path d="M123.786 176.51H129.661L132.457 153.82H123.786V176.51Z" fill="#FFB6B6"/>
    <path d="M120.684 186.703H124.898L125.65 182.72L127.576 186.703H138.751C139.286 186.703 139.808 186.531 140.24 186.213C140.671 185.896 140.99 185.448 141.149 184.936C141.308 184.424 141.3 183.874 141.126 183.367C140.951 182.86 140.619 182.422 140.178 182.118L131.254 175.947V171.92L121.868 172.481L120.684 186.703Z" fill="#2F2E41"/>
    <path d="M107.627 82.5642L134.91 80.3912C142.961 99.2216 137.842 129.282 131.655 163.122L122.879 164.258L122.199 109.881L100.2 160.468L91.0542 159.999L107.627 82.5642Z" fill="#2F2E41"/>
    <path d="M123.508 32.9785V23.7367C123.509 22.1099 123.19 20.4989 122.569 18.9957C121.947 17.4925 121.036 16.1265 119.888 14.9759C118.739 13.8253 117.375 12.9126 115.874 12.2898C114.373 11.6671 112.765 11.3466 111.14 11.3466C109.515 11.3466 107.906 11.6671 106.405 12.2898C104.904 12.9126 103.541 13.8253 102.392 14.9759C101.243 16.1265 100.332 17.4925 99.7112 18.9957C99.09 20.4989 98.7707 22.1099 98.7715 23.7367C96.5916 28.2849 97.9554 30.4474 98.7715 32.9785C98.7722 33.4193 98.9474 33.8418 99.2587 34.1534C99.57 34.4651 99.992 34.6405 100.432 34.6412H121.847C122.287 34.6407 122.709 34.4654 123.021 34.1537C123.332 33.842 123.507 33.4194 123.508 32.9785Z" fill="#2F2E41"/>
    <path d="M114.192 34.5019C119.2 34.5019 123.26 30.4369 123.26 25.4224C123.26 20.4079 119.2 16.3429 114.192 16.3429C109.183 16.3429 105.124 20.4079 105.124 25.4224C105.124 30.4369 109.183 34.5019 114.192 34.5019Z" fill="#FFB7B7"/>
    <path d="M126.433 24.4759C126.43 21.8787 125.399 19.3887 123.564 17.5522C121.73 15.7158 119.243 14.6827 116.649 14.6798H114.803C112.209 14.6827 109.723 15.7158 107.888 17.5523C106.054 19.3887 105.022 21.8787 105.02 24.4759V24.6608C106.402 25.6072 107.715 25.7456 108.921 24.6608L110.251 20.9302L110.518 24.6608H112.534L113.206 22.7787L113.341 24.6608C116.064 26.9833 121.215 25.8703 126.433 24.6608L126.433 24.4759Z" fill="#2F2E41"/>
    <path d="M108.904 73.3422L131.992 72.4625L133.283 57.3392C134.278 54.5711 134.294 52.1926 133.331 50.2749C132.502 48.6985 131.109 47.4935 129.432 46.9006L124.379 40.7911C123.73 40.0059 122.914 39.375 121.99 38.9441C121.067 38.5132 120.06 38.2929 119.042 38.2994L105.914 38.3892C105.598 38.1988 103.679 37.2221 99.8934 38.8643C95.788 40.6458 96.7413 46.8353 96.7516 46.8975L96.7611 46.9556L96.8062 46.9952L105.537 54.3589L108.904 73.3422Z" fill="#E6E7E8"/>
    <path d="M1.36125 187.09H233.185C233.288 187.09 233.386 187.05 233.459 186.977C233.531 186.904 233.572 186.805 233.572 186.703C233.572 186.6 233.531 186.501 233.459 186.428C233.386 186.356 233.288 186.315 233.185 186.315H1.36125C1.25851 186.315 1.15998 186.356 1.08734 186.428C1.01469 186.501 0.973877 186.6 0.973877 186.703C0.973877 186.805 1.01469 186.904 1.08734 186.977C1.15998 187.05 1.25851 187.09 1.36125 187.09Z" fill="#CCCCCC"/>
    <path d="M170.156 95.293C170.139 104.103 166.83 112.588 160.882 119.08C154.933 125.572 146.774 129.601 138.009 130.375C129.243 131.149 120.506 128.612 113.514 123.263C106.522 117.914 101.782 110.139 100.225 101.468C98.6679 92.7969 100.407 83.8561 105.1 76.4035C109.793 68.9509 117.1 63.5255 125.586 61.194C134.071 58.8625 143.121 59.7936 150.956 63.8041C158.79 67.8146 164.843 74.6145 167.925 82.867C168.001 83.0742 168.076 83.2814 168.149 83.4907V83.4926C168.474 84.4123 168.761 85.3492 169.009 86.3031C169.773 89.2384 170.158 92.2596 170.156 95.293Z" fill="#3F3D56"/>
    <path d="M130.793 71.3244C129.198 70.4611 127.428 69.9737 125.617 69.8995C123.805 69.8253 122.001 70.1663 120.342 70.8963C118.88 71.533 117.342 72.6753 116.854 74.7379C118.826 73.5729 121.378 75.4136 121.885 78.3664L121.767 78.3991C121.499 80.4444 122.097 82.6711 123.255 83.9393C123.341 83.3671 123.554 82.8212 123.877 82.3414C124.2 81.8616 124.626 81.4599 125.123 81.1654C125.974 80.6054 126.915 80.1985 127.565 79.2359C128.335 78.0947 128.53 76.4268 128.836 74.9053C129.142 73.3838 129.722 71.7484 130.793 71.3244Z" fill="white"/>
    <path d="M119.757 88.7287C119.211 89.5498 118.482 90.0649 117.827 90.7063C117.072 91.3944 116.576 92.3221 116.424 93.3332C116.341 94.0477 116.469 94.774 116.451 95.4964C116.434 96.2187 116.193 97.0318 115.702 97.2114C114.928 97.4917 114.336 96.0509 113.54 95.9503C112.907 95.8713 112.337 96.868 112.521 97.7325C112.704 98.597 113.565 98.9798 114.06 98.4154C114.508 99.1673 114.192 100.531 113.52 100.762C113.449 101.236 113.378 101.707 113.309 102.181C111.61 100.991 109.893 99.7811 108.448 98.0384C106.841 96.1166 105.845 93.7579 105.586 91.2649C105.399 89.2616 105.677 86.9702 104.758 85.4288C104.023 84.1953 102.761 83.9229 101.626 83.9999C101.419 84.0137 101.21 84.0374 101.003 84.063C101.673 82.0495 102.523 80.1007 103.544 78.2408C103.775 78.1415 103.99 78.0077 104.181 77.8441C105.237 76.9461 105.706 75.1283 106.564 73.8711C106.619 73.7902 106.676 73.7113 106.735 73.6343C107.613 72.4876 108.787 71.8975 109.923 71.3488C112.436 70.1271 115.022 68.8897 117.675 69.0594L116.92 69.1324C116.039 71.6034 115.157 74.0744 114.275 76.5454C114.141 76.9243 114.006 77.3039 113.869 77.6842C113.368 79.0894 112.852 80.5855 112.929 82.1585C112.974 83.09 113.297 84.0848 113.912 84.4045C114.486 84.7005 115.113 84.3374 115.667 83.9782C115.901 83.8282 116.134 83.6782 116.368 83.5262C117.21 82.9834 118.142 82.4269 119.031 82.79C119.846 83.1216 120.447 84.2288 120.561 85.4229C120.666 86.5836 120.383 87.7463 119.757 88.7287Z" fill="white"/>
    <path d="M124.763 105.599C122.304 104.083 119.846 102.568 117.388 101.052L117.43 100.945C115.901 101.528 115.267 104.248 115.519 106.473C115.772 108.697 116.628 110.686 117.061 112.853C117.644 115.82 117.424 118.888 116.423 121.741C119.656 118.109 122.516 114.162 124.962 109.959C125.304 109.429 125.564 108.851 125.735 108.244C125.915 107.597 125.851 106.906 125.554 106.304C125.353 106.007 125.081 105.764 124.763 105.599Z" fill="white"/>
    <path d="M115.061 78.028C114.772 78.6486 114.728 79.3553 114.936 80.0073C115.179 80.5325 115.619 80.9406 116.161 81.1425L117.519 81.8166C117.971 82.0409 118.458 82.2674 118.919 82.0829C119.474 81.8604 119.859 80.9882 119.76 80.1786C119.654 79.317 119.111 78.7243 118.61 78.2196C117.908 77.5134 117.206 76.8071 116.504 76.1008L116.108 76.586C115.68 77.0039 115.326 77.4915 115.061 78.028Z" fill="white"/>
    <path d="M162.874 87.2387C163.485 87.3828 164.096 87.5268 164.707 87.6709C164.601 89.7373 163.578 91.6498 162.206 92.3425C161.634 92.6307 160.997 92.7372 160.524 93.2761C160.097 93.7655 159.88 94.5273 159.681 95.2556C159.332 96.5266 158.983 97.7977 158.634 99.0687C158.259 100.438 157.778 101.96 156.805 102.453C155.969 102.878 155.013 102.359 154.37 101.488C153.728 100.618 153.335 99.4476 152.955 98.3069C152.979 99.5503 152.401 100.77 151.583 101.202C150.763 101.634 149.766 101.244 149.218 100.279C148.823 99.5858 148.66 98.672 148.273 97.9694C147.887 97.2668 147.077 96.8641 146.655 97.5233C146.377 97.9615 146.413 98.6325 146.275 99.1891C146.205 99.5586 146.022 99.8972 145.752 100.158C145.481 100.419 145.136 100.588 144.765 100.644C144.423 100.636 144.087 100.558 143.776 100.416C143.465 100.274 143.187 100.07 142.957 99.8167C141.75 98.5804 140.964 96.9936 140.712 95.2832C140.541 94.4632 140.563 93.6146 140.775 92.8044C141.018 92.0366 141.603 91.4446 142.184 91.5906C142.567 90.7814 141.812 89.7077 141.132 89.8025C140.45 89.8972 139.916 90.6294 139.356 91.1919C138.798 91.7544 138.017 92.1629 137.456 91.6044C137.468 91.8087 137.399 92.0096 137.264 92.1629C137.128 92.3163 136.938 92.4095 136.734 92.4221C136.713 92.4233 136.693 92.4238 136.673 92.4234C136.3 92.3161 135.952 92.1319 135.654 91.8827C134.367 91.0794 132.733 91.6123 131.818 93.132C132.39 90.6965 133.227 87.9018 134.984 87.3294C135.701 87.0946 136.484 87.288 137.162 86.8814C138.362 86.1611 138.605 83.4394 137.568 82.3164C137.7 83.3782 137.674 84.6177 137.115 85.344C136.555 86.0703 135.38 85.5966 135.451 84.523C135.435 84.674 135.372 84.816 135.27 84.9289C135.169 85.0417 135.034 85.1194 134.886 85.151C134.737 85.1825 134.583 85.1662 134.444 85.1045C134.306 85.0427 134.19 84.9386 134.115 84.8071C133.742 84.2388 133.774 83.3092 134.038 82.6302C134.31 82.0153 134.7 81.46 135.187 80.9961C136.123 79.9915 137.073 78.9751 138.157 78.3435C139.244 77.7119 140.497 77.4988 141.585 78.1264C142.159 78.458 142.664 79.0106 143.249 79.3027C143.387 79.3881 143.54 79.4457 143.699 79.4719C143.859 79.4982 144.022 79.4926 144.18 79.4557C144.338 79.4187 144.487 79.351 144.618 79.2565C144.75 79.1619 144.861 79.0424 144.947 78.9046C144.953 78.894 144.96 78.8832 144.966 78.8724C145.401 78.1066 145.196 76.9698 145.358 76.0126C145.648 74.3212 147.337 73.5298 148.273 74.6469C147.574 74.4673 146.85 75.2962 146.764 76.3008C146.675 77.3054 147.181 78.3198 147.86 78.6238C148.999 79.129 150.115 77.858 150.976 76.6817C151.875 75.4501 152.775 74.2192 153.676 72.989C153.82 72.7795 153.982 72.5828 154.159 72.4009C154.442 72.1253 154.818 71.9675 155.212 71.9595C155.606 71.9514 155.989 72.0937 156.282 72.3574C157.193 73.1015 157.621 74.6271 158.368 75.6771C159.452 77.2027 161.074 77.5738 162.584 77.8698C163.71 78.0889 164.836 78.3093 165.963 78.531C166.714 79.9302 167.369 81.3789 167.924 82.8671C165.858 83.8105 164.105 85.3278 162.874 87.2387Z" fill="white"/>
    <path d="M169.009 86.3033C168.778 86.9848 168.652 87.6975 168.634 88.417C167.668 87.2368 167.515 85.0244 168.149 83.4928C168.475 84.4125 168.761 85.3493 169.009 86.3033Z" fill="white"/>
    <path d="M166.513 110.986C165.668 112.702 164.686 114.348 163.576 115.906C162.866 115.602 162.103 116.145 161.439 116.654C160.745 117.187 159.912 117.706 159.2 117.22C158.473 116.723 158.238 115.332 158.469 114.228C158.734 113.21 159.197 112.255 159.833 111.418C160.424 110.534 161.057 109.616 161.879 109.272C162.703 108.929 163.761 109.414 164.002 110.587L164.585 110.567C164.258 110.117 164.429 109.186 164.869 109.022C165.376 108.83 165.815 109.527 166.115 110.143C166.249 110.421 166.385 110.701 166.513 110.986Z" fill="white"/>
    <path d="M144.167 102.649C142.913 102.728 141.919 101.182 141.259 99.6615C140.599 98.1408 139.997 96.4017 138.865 95.6276C138.219 95.1853 137.482 95.1247 136.78 94.9103C136.382 94.8097 136.014 94.6157 135.706 94.3442C135.398 94.0727 135.16 93.7317 135.01 93.3494L134.214 93.0276C133.101 93.5846 132.082 94.3121 131.193 95.184C130.178 96.2639 129.546 97.6483 129.394 99.1236C129.242 100.718 129.803 102.496 130.851 103.095C131.68 103.568 132.645 103.27 133.484 103.703C134.532 104.244 135.155 105.817 135.391 107.369C135.626 108.922 135.567 110.535 135.735 112.105C135.904 113.676 136.368 115.309 137.33 116.114C138.533 117.121 140.299 116.284 140.839 114.451C141.104 113.552 141.095 112.538 141.293 111.604C141.641 109.961 142.583 108.741 143.329 107.393C144.076 106.045 144.663 104.214 144.167 102.649Z" fill="white"/>
    <path d="M131.774 86.4984C131.891 86.6062 132 86.7222 132.1 86.8456C132.204 87.0251 132.257 87.2297 132.254 87.4372C132.25 87.6448 132.19 87.8474 132.08 88.0233C132.231 88.0147 132.379 87.9748 132.514 87.9062C132.649 87.8375 132.768 87.7416 132.864 87.6245C133.093 87.3635 133.294 87.0795 133.465 86.777C133.545 86.6735 133.602 86.554 133.633 86.4265C133.663 86.2991 133.666 86.1665 133.642 86.0378C133.583 85.8685 133.443 85.7963 133.344 85.669C133.208 85.42 133.115 85.1498 133.069 84.8697C133.015 84.6071 132.889 84.365 132.704 84.1705C132.52 83.976 132.285 83.8369 132.026 83.7686L132.089 83.7807C131.982 83.8442 131.897 83.9397 131.847 84.0537C131.797 84.1678 131.784 84.2946 131.81 84.4165C131.848 84.6628 132.006 84.8673 131.99 85.1185C131.967 85.4797 131.607 85.6492 131.585 86.0104C131.581 86.1916 131.649 86.367 131.774 86.4984Z" fill="white"/>
    <path d="M129.626 80.3609L129.631 80.3598C129.67 80.3244 129.706 80.2861 129.739 80.2451L129.626 80.3609Z" fill="white"/>
    <path d="M130.001 82.0558C130.152 81.9235 130.263 81.7523 130.323 81.5608C130.383 81.3694 130.39 81.1651 130.342 80.9703C130.251 80.5596 129.928 80.2835 129.631 80.3593C129.544 80.4469 129.437 80.5111 129.319 80.5458C129.202 80.5806 129.077 80.5847 128.957 80.5579C128.773 80.5105 128.571 80.3885 128.412 80.5272C128.32 80.6308 128.257 80.7556 128.226 80.8903C128.167 81.0717 128.108 81.2532 128.049 81.4346C128.021 81.4995 128.014 81.5715 128.028 81.6408C128.039 81.6686 128.058 81.6929 128.081 81.7116C128.104 81.7303 128.132 81.7426 128.162 81.7473C128.516 81.8519 128.87 81.9564 129.224 82.0609C129.346 82.1172 129.479 82.1459 129.613 82.145C129.748 82.1442 129.88 82.1137 130.001 82.0558Z" fill="white"/>
    <path d="M156.738 105.463C156.575 105.195 156.411 104.926 156.247 104.658C156.086 104.347 155.867 104.071 155.6 103.844C155.542 103.796 155.476 103.759 155.404 103.737C155.332 103.714 155.256 103.706 155.181 103.712C155.106 103.719 155.033 103.74 154.967 103.775C154.9 103.81 154.841 103.858 154.792 103.916L154.784 103.926L154.804 104.079C155.242 104.55 155.541 105.134 155.666 105.765C155.704 106.039 155.691 106.323 155.723 106.598C155.727 106.726 155.755 106.852 155.807 106.968C155.859 107.085 155.934 107.19 156.027 107.278C156.284 107.451 156.587 107.196 156.771 106.886C156.935 106.631 157.008 106.329 156.979 106.027C156.939 105.824 156.857 105.632 156.738 105.463Z" fill="white"/>
    <path d="M159.307 105.812C159.338 105.561 159.318 105.306 159.247 105.063C159.235 104.734 159.322 104.409 159.497 104.13C159.671 103.867 159.802 103.579 159.887 103.275C159.922 103.137 159.916 102.991 159.868 102.857C159.814 102.735 159.683 102.679 159.607 102.776L159.768 102.88C159.551 102.841 159.327 102.852 159.114 102.911C158.993 102.958 158.885 103.033 158.798 103.13C158.712 103.228 158.651 103.344 158.619 103.471C158.592 103.667 158.549 103.862 158.489 104.051C158.393 104.249 158.207 104.315 158.09 104.488C158.01 104.642 157.97 104.813 157.973 104.987C157.976 105.16 158.022 105.33 158.106 105.481C158.253 105.729 158.487 105.912 158.761 105.997C158.958 106.068 159.217 106.071 159.307 105.812Z" fill="white"/>
    <path d="M163.88 107.194C163.952 107.379 164.047 107.554 164.164 107.715C164.383 107.935 164.68 107.8 164.946 107.746C165.187 107.708 165.434 107.736 165.66 107.827C165.887 107.918 166.085 108.068 166.232 108.263C166.129 107.748 165.905 107.266 165.577 106.857C165.249 106.447 164.828 106.123 164.349 105.91C163.727 105.694 163.071 105.592 162.412 105.607L162.3 105.636C162.586 106.471 163.486 106.452 163.88 107.194Z" fill="white"/>
    <path d="M144.51 108.903L144.511 108.907L144.544 108.843L144.51 108.903Z" fill="white"/>
    <path d="M143.815 110.247C143.664 110.522 143.534 110.808 143.426 111.103C143.284 111.581 143.189 112.072 143.144 112.568C143.109 112.851 143.098 113.211 143.275 113.349C143.325 113.382 143.387 113.397 143.447 113.388C143.507 113.38 143.563 113.35 143.602 113.304C143.701 113.2 143.781 113.081 143.84 112.95C144.187 112.352 144.457 111.711 144.642 111.044C144.836 110.336 144.79 109.585 144.511 108.906C144.279 109.353 144.047 109.8 143.815 110.247Z" fill="white"/>
    <path d="M137.123 74.4225C137.233 74.5303 137.372 74.6036 137.523 74.6331C137.675 74.6627 137.831 74.6473 137.974 74.5888C138.269 74.4595 138.54 74.2804 138.775 74.0591C138.969 73.9151 139.134 73.7351 139.26 73.5287C139.33 73.4054 139.375 73.2696 139.392 73.1289C139.409 72.9883 139.398 72.8457 139.36 72.7093C139.305 72.5786 139.219 72.464 139.108 72.3762C138.997 72.2884 138.866 72.2303 138.726 72.2075C138.333 72.0908 137.94 71.974 137.547 71.8574L137.831 71.6007C137.539 71.4435 137.215 71.7353 137.032 72.0965C136.915 72.3324 136.833 72.5844 136.789 72.8442C136.727 73.1158 136.725 73.3976 136.782 73.6701C136.84 73.9426 136.956 74.1994 137.123 74.4225Z" fill="white"/>
    <path d="M144.063 72.0895C144.174 72.2118 144.327 72.2873 144.491 72.3007C144.655 72.3141 144.819 72.2643 144.948 72.1616C145.059 72.078 145.151 71.972 145.219 71.8503C145.286 71.7287 145.327 71.5942 145.339 71.4556C145.367 71.146 145.214 70.8019 144.996 70.7751L145.046 70.4852C144.625 70.4092 144.108 70.3939 143.882 70.9054C143.806 71.1013 143.783 71.3138 143.815 71.5216C143.846 71.7294 143.932 71.9252 144.063 72.0895Z" fill="white"/>
    <path d="M102.629 103.113C102.225 102.75 101.906 102.302 101.693 101.802C101.48 101.301 101.38 100.76 101.399 100.217C101.417 99.6733 101.555 99.1405 101.801 98.6559C102.047 98.1714 102.397 97.7468 102.825 97.412L98.5613 84.8996L105.204 86.6273L108.231 98.2438C108.746 99.0013 108.965 99.9214 108.846 100.83C108.728 101.738 108.282 102.571 107.591 103.172C106.9 103.772 106.013 104.098 105.098 104.087C104.183 104.076 103.304 103.73 102.628 103.113L102.629 103.113Z" fill="#FFB7B7"/>
    <path d="M100.724 95.5195L107.169 92.6437L105.004 70.8167L107.02 48.8072L98.4154 44.1573L96.5922 46.4591V46.5113L95.6262 74.3429L95.6314 74.3639L100.724 95.5195Z" fill="#E6E7E8"/>
    <path d="M199.458 160.563C195.814 158.885 191.883 156.908 187.665 154.632C165.852 142.858 139.029 124.49 112.137 102.913C85.2442 81.3357 61.4955 59.1262 45.2653 40.3766C37.3592 31.2429 31.6642 23.4208 28.339 17.1274C24.8183 10.4647 24.1082 5.74323 26.2282 3.09435C30.3584 -2.06604 43.8089 2.58199 54.3652 7.38996L53.9794 8.23935C39.4829 1.63669 29.8856 0.0168303 26.9555 3.67794C23.2234 8.34081 30.1539 21.4941 45.9696 39.7654C62.164 58.4739 85.8694 80.6417 112.719 102.185C139.569 123.728 166.343 142.062 188.108 153.811C209.363 165.284 223.695 169.19 227.427 164.527C230.525 160.656 226.299 150.905 215.526 137.07L216.261 136.497C224.089 146.549 232.506 159.673 228.154 165.111C226.034 167.76 221.277 168.095 214.016 166.106C209.876 164.972 205.005 163.117 199.458 160.563Z" fill="white"/>
    <path d="M76.599 125.287C67.1525 126.16 58.3401 126.647 50.417 126.718C40.0607 126.812 31.7889 126.188 25.8319 124.865C19.5247 123.464 16.0465 121.305 15.4937 118.447C14.4166 112.879 24.9221 106.668 33.9248 102.438L34.2653 103.163C21.9023 108.971 15.5145 114.346 16.2786 118.296C17.2518 123.327 29.6917 126.105 50.4088 125.918C71.6221 125.727 99.2655 122.547 128.247 116.964C157.229 111.381 184.072 104.065 203.833 96.3635C223.131 88.8424 233.641 81.6432 232.668 76.6122C231.86 72.4351 223.144 69.78 208.125 69.1353L208.158 68.3361C219.071 68.8044 232.318 70.594 233.453 76.461C234.006 79.3191 231.583 82.6152 226.251 86.2579C221.216 89.6985 213.771 93.3494 204.124 97.109C184.32 104.828 157.427 112.158 128.399 117.749C110.189 121.257 92.5 123.818 76.599 125.287Z" fill="white"/>
    <path d="M75.1533 50.1598C78.1527 50.1598 80.5842 47.7252 80.5842 44.7221C80.5842 41.7189 78.1527 39.2843 75.1533 39.2843C72.1539 39.2843 69.7224 41.7189 69.7224 44.7221C69.7224 47.7252 72.1539 50.1598 75.1533 50.1598Z" fill="#E6E6E6"/>
    <path d="M182.201 116.53C184.037 116.53 185.526 115.04 185.526 113.202C185.526 111.363 184.037 109.873 182.201 109.873C180.365 109.873 178.877 111.363 178.877 113.202C178.877 115.04 180.365 116.53 182.201 116.53Z" fill="#FF6584"/>
    <path d="M19.605 145.75C22.6044 145.75 25.0359 143.315 25.0359 140.312C25.0359 137.309 22.6044 134.874 19.605 134.874C16.6056 134.874 14.1741 137.309 14.1741 140.312C14.1741 143.315 16.6056 145.75 19.605 145.75Z" fill="#E6E6E6"/>
  </g>
  <defs>
    <clipPath id="clip0_366_325">
      <rect width="246.053" height="186.255" fill="white" transform="translate(0.973877 0.835541)"/>
    </clipPath>
  </defs>
</svg>