<svg xmlns="http://www.w3.org/2000/svg" width="116" height="97" viewBox="0 0 116 97" fill="none">
  <g clip-path="url(#clip0_181_1240)">
    <path opacity="0.1" d="M161.813 63.9258C161.815 66.6225 161.489 69.3094 160.841 71.927C160.623 72.809 160.37 73.6727 160.082 74.5181C159.729 75.5615 159.319 76.5852 158.856 77.5845C158.623 78.0901 158.376 78.5855 158.116 79.071C158.12 81.8363 157.551 84.5724 156.444 87.1065C154.443 91.6531 150.875 95.3294 146.39 97.4652C143.586 98.8031 140.521 99.5067 137.415 99.526H30.7173C25.9702 99.5361 21.305 98.289 17.1961 95.9114L17.1329 95.8757C16.5476 95.5331 15.977 95.1705 15.4211 94.7876C14.1702 93.9235 12.995 92.9547 11.9082 91.8916C10.4372 90.454 9.14091 88.8479 8.04635 87.1065C5.47563 83.0246 4.11379 78.298 4.11857 73.474C1.51515 68.906 -0.00292969 63.434 -0.00292969 57.554C-0.00292969 50.1353 2.40952 43.3678 6.37303 38.2448C7.19934 37.1745 8.10447 36.1674 9.08085 35.232C10.0442 34.3063 11.0797 33.4587 12.1775 32.6973C13.0558 32.0874 13.9737 31.5366 14.9251 31.0487C15.3222 30.8467 15.7206 30.6557 16.1259 30.4785C16.4817 30.3205 16.8416 30.1735 17.2057 30.0348C17.6426 29.869 18.0849 29.7165 18.5328 29.5773C18.9807 29.4381 19.4226 29.3163 19.8586 29.2119C20.4997 29.0552 21.1518 28.9279 21.8149 28.8299C22.3644 28.7489 22.914 28.6925 23.4635 28.65C23.9004 28.617 24.3414 28.5991 24.7851 28.5936H25.0255C25.5146 28.5936 26.001 28.6129 26.4832 28.6458C26.534 28.5442 26.589 28.4411 26.6398 28.3408C26.8321 27.974 27.0313 27.6086 27.2319 27.2514C27.2315 27.2482 27.2315 27.245 27.2319 27.2418C27.2663 27.1786 27.3006 27.1168 27.3363 27.0563C27.4984 26.7637 27.6674 26.4738 27.8405 26.1867C27.9202 26.0493 27.9985 25.9201 28.0796 25.791C28.0967 25.7589 28.1155 25.7277 28.1359 25.6976C28.2183 25.5602 28.3021 25.4228 28.3873 25.2854C28.8114 24.6077 29.2524 23.9418 29.7103 23.2879L29.8271 23.1203C29.8985 23.0186 29.9645 22.9197 30.0442 22.818C30.2337 22.5529 30.4288 22.2864 30.6253 22.0253C30.7627 21.8385 30.9001 21.653 31.0484 21.4758C31.4056 21.0179 31.772 20.5599 32.1475 20.102C32.523 19.644 32.9132 19.192 33.318 18.746C33.373 18.6842 33.4279 18.6237 33.4856 18.5633L34.0722 17.9231C34.1011 17.8928 34.1258 17.8654 34.1533 17.8379C34.2234 17.7623 34.2907 17.6868 34.3662 17.614C34.6808 17.2801 35.0037 16.9531 35.3279 16.6275C36.978 14.9841 38.7358 13.4525 40.5897 12.0431C40.6625 11.9854 40.7367 11.9304 40.8095 11.8755C41.1585 11.6131 41.5129 11.3534 41.8674 11.0979C43.817 9.69924 45.8549 8.42808 47.9685 7.29236C48.1142 7.20855 48.2626 7.13025 48.4123 7.05331C50.3072 6.05084 52.2559 5.15374 54.2497 4.36609C55.3364 3.93609 56.4478 3.53218 57.5661 3.16262C58.3108 2.91808 59.0581 2.6859 59.8151 2.46746C60.9984 2.12675 62.19 1.8213 63.3898 1.55111C66.9246 0.757979 70.5206 0.268031 74.1387 0.086607C75.2377 0.0307379 76.3492 0.00188776 77.473 5.59842e-05C82.8955 -0.00712283 88.2969 0.676127 93.5468 2.03333C93.6011 2.11536 93.6753 2.18223 93.7626 2.22765C93.8498 2.27308 93.9472 2.29556 94.0455 2.29298H94.5071C94.7077 2.34793 94.9069 2.40289 95.1075 2.46059C96.2276 2.78298 97.3317 3.13514 98.4198 3.51707L98.6946 3.61598C101.38 4.57093 103.993 5.71878 106.513 7.05056C108.785 8.24821 110.972 9.59953 113.059 11.0951C113.381 11.3259 113.698 11.5586 114.01 11.793C114.389 11.5503 114.775 11.3177 115.167 11.0951C116.681 10.233 118.288 9.5475 119.959 9.05223C123.451 8.01886 127.146 7.87436 130.708 8.63184C135.276 9.6004 139.411 12.0046 142.751 15.4241C144.111 16.8232 145.321 18.3601 146.362 20.0099C146.438 20.1281 146.514 20.2476 146.586 20.3685C147.481 21.8287 148.251 23.3624 148.886 24.953C148.91 25.012 148.933 25.067 148.953 25.1247C149.54 26.6141 150.013 28.1457 150.369 29.7064C150.385 29.7861 150.404 29.8644 150.421 29.9441C150.753 31.4545 150.979 32.9865 151.097 34.5286C151.097 34.5835 151.097 34.6399 151.108 34.6976C151.165 35.4953 151.195 36.3013 151.196 37.1155C151.196 37.8436 151.171 38.5663 151.126 39.2834C151.126 39.3617 151.115 39.4428 151.108 39.5238C151.095 39.7313 151.077 39.936 151.06 40.1448C152.109 40.9912 153.091 41.9176 153.997 42.9158C154.397 43.3527 154.784 43.8061 155.159 44.2759C156.3 45.706 157.303 47.241 158.154 48.8604C160.477 53.2457 161.813 58.4044 161.813 63.9258Z" fill="#F68260"/>
    <path opacity="0.1" d="M146.288 96.9568C146.288 97.8952 143.055 98.7744 137.414 99.53H30.7167C25.9695 99.5401 21.3043 98.293 17.1954 95.9155L17.1322 95.8798C18.7533 95.289 21.6796 94.7381 25.6623 94.2408L25.8409 94.2188C27.6269 94.0004 29.6231 93.7929 31.8047 93.5964C31.8597 93.5964 31.916 93.5882 31.971 93.5813C33.702 93.4275 35.5434 93.2832 37.4951 93.1486C37.557 93.1486 37.6174 93.1376 37.6792 93.1348C38.4321 93.0808 39.2005 93.0295 39.9845 92.981L40.2868 92.9617C45.995 92.6073 52.4837 92.3243 59.5204 92.1374H59.5287C60.5142 92.11 61.5102 92.0857 62.5168 92.0646C63.636 92.0381 64.7689 92.0147 65.9156 91.9946C66.7908 91.9753 67.6769 91.9616 68.5657 91.9478H68.5863C72.5966 91.8874 76.74 91.8572 80.9769 91.8572C91.4538 91.8572 101.356 92.0481 110.131 92.3916H110.156C111.505 92.4438 112.829 92.5015 114.121 92.5606L115.22 92.6128C116.677 92.6824 118.097 92.757 119.479 92.8367C135.731 93.7613 146.288 95.2629 146.288 96.9568Z" fill="#F68260"/>
    <g opacity="0.2">
      <path d="M93.4585 91.2267C93.4541 91.3749 93.4371 91.5224 93.4076 91.6677C92.4514 91.5157 91.4898 91.3783 90.5226 91.2556C90.5226 91.2171 90.5226 91.1772 90.5226 91.1374C90.5315 90.7255 90.6501 90.3233 90.866 89.9724C91.1491 89.5245 91.5791 89.2443 92.053 89.2594C92.527 89.2745 92.9378 89.5809 93.1919 90.0438C93.3842 90.4075 93.4762 90.8157 93.4585 91.2267Z" fill="#3F3D56"/>
      <path d="M93.5381 88.879C93.5717 87.8166 92.9411 86.9345 92.1297 86.9088C91.3182 86.8832 90.6332 87.7237 90.5996 88.7862C90.566 89.8487 91.1966 90.7307 92.0081 90.7564C92.8195 90.782 93.5046 89.9415 93.5381 88.879Z" fill="#3F3D56"/>
      <path d="M93.6128 86.527C93.6464 85.4645 93.0158 84.5824 92.2044 84.5568C91.3929 84.5311 90.7079 85.3717 90.6743 86.4341C90.6407 87.4966 91.2713 88.3787 92.0828 88.4043C92.8942 88.43 93.5793 87.5895 93.6128 86.527Z" fill="#3F3D56"/>
      <path d="M93.6863 84.1749C93.7199 83.1125 93.0893 82.2304 92.2779 82.2047C91.4664 82.1791 90.7814 83.0196 90.7478 84.0821C90.7142 85.1446 91.3448 86.0266 92.1563 86.0523C92.9677 86.0779 93.6528 85.2374 93.6863 84.1749Z" fill="#3F3D56"/>
      <path d="M93.7597 81.8229C93.7933 80.7604 93.1627 79.8783 92.3512 79.8527C91.5398 79.827 90.8547 80.6676 90.8212 81.73C90.7876 82.7925 91.4182 83.6746 92.2296 83.7002C93.0411 83.7259 93.7261 82.8854 93.7597 81.8229Z" fill="#3F3D56"/>
      <path d="M87.2905 65.503C87.0971 65.241 86.9226 64.9655 86.7685 64.6787L90.6509 64.1662L86.4717 64.0659C86.0988 63.1813 85.9102 62.2299 85.9175 61.2699C85.9249 60.3099 86.1279 59.3615 86.5143 58.4827L92.0262 61.5669L86.9773 57.6048C87.4866 56.781 88.1603 56.0711 88.9564 55.5194C89.7524 54.9677 90.6536 54.5861 91.6037 54.3983C92.5538 54.2105 93.5325 54.2207 94.4785 54.4282C95.4246 54.6356 96.3176 55.0359 97.102 55.604C97.8864 56.1721 98.5452 56.8959 99.0373 57.7301C99.5294 58.5642 99.8443 59.4909 99.9621 60.4522C100.08 61.4135 99.9984 62.3888 99.7224 63.3172C99.4465 64.2455 98.982 65.107 98.3581 65.8478C98.6591 66.2553 98.9147 66.6943 99.1206 67.1571L94.0251 69.6025L99.4284 67.9772C99.7686 69.1 99.8235 70.2899 99.5879 71.4392C99.3523 72.5885 98.8338 73.6609 98.0793 74.5593C98.8637 75.6236 99.3329 76.8873 99.433 78.2057C99.5331 79.5241 99.2601 80.8441 98.6454 82.0147C98.0306 83.1853 97.0988 84.1593 95.9566 84.8252C94.8143 85.4912 93.5077 85.8223 92.1862 85.7806C90.8646 85.739 89.5814 85.3262 88.4834 84.5896C87.3854 83.853 86.5168 82.8223 85.977 81.6153C85.4372 80.4083 85.248 79.0737 85.4309 77.7642C85.6139 76.4547 86.1617 75.2231 87.0117 74.2103C86.0744 72.9383 85.592 71.3883 85.6418 69.8091C85.6917 68.2299 86.2709 66.7133 87.2864 65.503H87.2905Z" fill="#F68260"/>
      <path opacity="0.1" d="M99.7277 70.2537C99.6796 71.8338 99.0986 73.3512 98.0791 74.5593C98.8636 75.6236 99.3327 76.8873 99.4328 78.2057C99.533 79.5241 99.26 80.8441 98.6453 82.0147C98.0305 83.1853 97.0987 84.1593 95.9565 84.8253C94.8142 85.4912 93.5076 85.8223 92.186 85.7806C90.8645 85.739 89.5813 85.3262 88.4833 84.5896C87.3853 83.853 86.5167 82.8223 85.9769 81.6153C85.4371 80.4083 85.2479 79.0737 85.4308 77.7642C85.6138 76.4547 86.1616 75.2232 87.0115 74.2103C86.1089 72.9835 99.7525 69.4638 99.7277 70.2537Z" fill="black"/>
    </g>
    <g opacity="0.2">
      <path d="M72.5763 91.2267C72.5719 91.3749 72.5549 91.5224 72.5254 91.6677C71.5692 91.5157 70.6076 91.3783 69.6404 91.2556C69.6404 91.2171 69.6404 91.1772 69.6404 91.1374C69.6493 90.7255 69.7679 90.3233 69.9838 89.9724C70.2668 89.5245 70.6969 89.2443 71.1708 89.2594C71.6448 89.2745 72.0556 89.5809 72.3097 90.0438C72.502 90.4075 72.594 90.8157 72.5763 91.2267Z" fill="#3F3D56"/>
      <path d="M72.6546 88.8795C72.6882 87.8171 72.0576 86.935 71.2461 86.9093C70.4347 86.8837 69.7496 87.7242 69.7161 88.7867C69.6825 89.8491 70.3131 90.7312 71.1245 90.7569C71.936 90.7825 72.621 89.942 72.6546 88.8795Z" fill="#3F3D56"/>
      <path d="M72.7294 86.5275C72.763 85.465 72.1324 84.5829 71.321 84.5573C70.5095 84.5316 69.8245 85.3721 69.7909 86.4346C69.7573 87.4971 70.3879 88.3792 71.1994 88.4048C72.0108 88.4305 72.6958 87.59 72.7294 86.5275Z" fill="#3F3D56"/>
      <path d="M72.8028 84.1754C72.8364 83.113 72.2058 82.2309 71.3943 82.2052C70.5829 82.1796 69.8978 83.0201 69.8643 84.0826C69.8307 85.145 70.4613 86.0271 71.2727 86.0528C72.0842 86.0784 72.7692 85.2379 72.8028 84.1754Z" fill="#3F3D56"/>
      <path d="M72.8762 81.8234C72.9097 80.7609 72.2791 79.8788 71.4677 79.8532C70.6562 79.8275 69.9712 80.668 69.9376 81.7305C69.904 82.793 70.5346 83.6751 71.3461 83.7007C72.1575 83.7264 72.8426 82.8859 72.8762 81.8234Z" fill="#3F3D56"/>
      <path d="M66.4081 65.503C66.2146 65.241 66.0402 64.9655 65.8861 64.6787L69.7685 64.1662L65.5893 64.0659C65.2164 63.1813 65.0278 62.2299 65.0351 61.2699C65.0424 60.3099 65.2455 59.3615 65.6319 58.4827L71.1437 61.5669L66.0949 57.6048C66.6042 56.781 67.2779 56.0711 68.0739 55.5194C68.8699 54.9677 69.7711 54.5861 70.7213 54.3983C71.6714 54.2105 72.6501 54.2207 73.5961 54.4282C74.5421 54.6356 75.4352 55.0359 76.2196 55.604C77.004 56.1721 77.6628 56.8959 78.1549 57.7301C78.647 58.5642 78.9618 59.4909 79.0797 60.4522C79.1976 61.4135 79.116 62.3888 78.84 63.3172C78.564 64.2455 78.0996 65.107 77.4757 65.8478C77.7766 66.2553 78.0323 66.6943 78.2382 67.1571L73.1426 69.6025L78.5459 67.9772C78.8862 69.1 78.941 70.2899 78.7055 71.4392C78.4699 72.5885 77.9514 73.6609 77.1968 74.5593C77.9813 75.6236 78.4504 76.8873 78.5505 78.2057C78.6506 79.5241 78.3777 80.8441 77.7629 82.0147C77.1482 83.1853 76.2164 84.1593 75.0741 84.8252C73.9319 85.4912 72.6253 85.8223 71.3037 85.7806C69.9822 85.739 68.699 85.3262 67.601 84.5896C66.5029 83.853 65.6344 82.8223 65.0946 81.6153C64.5548 80.4083 64.3655 79.0737 64.5485 77.7642C64.7315 76.4547 65.2793 75.2231 66.1292 74.2103C65.192 72.9383 64.7096 71.3883 64.7594 69.8091C64.8092 68.2299 65.3884 66.7133 66.404 65.503H66.4081Z" fill="#F68260"/>
      <path opacity="0.1" d="M78.8455 70.2537C78.7975 71.8338 78.2164 73.3512 77.1969 74.5593C77.9814 75.6236 78.4505 76.8873 78.5506 78.2057C78.6508 79.5241 78.3778 80.8441 77.7631 82.0147C77.1483 83.1853 76.2165 84.1593 75.0743 84.8253C73.932 85.4912 72.6254 85.8223 71.3038 85.7806C69.9823 85.739 68.6991 85.3262 67.6011 84.5896C66.5031 83.853 65.6345 82.8223 65.0947 81.6153C64.5549 80.4083 64.3656 79.0737 64.5486 77.7642C64.7316 76.4547 65.2794 75.2232 66.1293 74.2103C65.2267 72.9835 78.8703 69.4638 78.8455 70.2537Z" fill="black"/>
    </g>
    <g opacity="0.2">
      <path d="M117.74 43.2083C117.369 42.704 117.034 42.1747 116.736 41.6243L124.21 40.6378L116.166 40.4441C115.447 38.7413 115.084 36.9097 115.097 35.0615C115.111 33.2133 115.502 31.3873 116.245 29.6953L126.858 35.6316L117.14 28.0041C118.122 26.422 119.42 25.0592 120.953 24.0007C122.485 22.9422 124.219 22.2107 126.047 21.8517C127.874 21.4928 129.756 21.514 131.575 21.9142C133.394 22.3144 135.111 23.0849 136.619 24.1777C138.127 25.2706 139.394 26.6623 140.341 28.2662C141.287 29.8701 141.893 31.6518 142.121 33.5003C142.349 35.3487 142.194 37.2243 141.665 39.0101C141.137 40.7959 140.246 42.4537 139.048 43.8801C139.627 44.6652 140.119 45.5104 140.517 46.4011L130.706 51.1119L141.108 47.9796C141.763 50.1385 141.87 52.4268 141.418 54.6373C140.966 56.8478 139.971 58.9108 138.521 60.6395C140.031 62.6885 140.933 65.1211 141.126 67.6592C141.319 70.1972 140.793 72.7381 139.609 74.9915C138.426 77.2449 136.632 79.1198 134.433 80.4017C132.234 81.6837 129.719 82.321 127.175 82.2408C124.631 82.1606 122.161 81.3661 120.047 79.9481C117.933 78.5302 116.261 76.5461 115.222 74.2226C114.183 71.8992 113.818 69.3301 114.17 66.8093C114.522 64.2885 115.577 61.9176 117.213 59.9677C115.409 57.519 114.481 54.5355 114.577 51.496C114.672 48.4565 115.786 45.5373 117.74 43.2069V43.2083Z" fill="#F68260"/>
      <path opacity="0.1" d="M141.686 52.3524C141.596 55.3926 140.482 58.3134 138.526 60.6421C140.036 62.6912 140.939 65.1238 141.131 67.6618C141.324 70.1998 140.798 72.7408 139.615 74.9942C138.431 77.2476 136.637 79.1224 134.439 80.4044C132.24 81.6863 129.724 82.3236 127.18 82.2434C124.636 82.1632 122.166 81.3687 120.052 79.9508C117.939 78.5329 116.267 76.5488 115.227 74.2253C114.188 71.9018 113.824 69.3328 114.176 66.812C114.528 64.2911 115.582 61.9202 117.218 59.9703C115.468 57.606 141.734 50.8316 141.686 52.3524Z" fill="black"/>
    </g>
    <path d="M21.6815 92.9714L23.1227 92.9672H25.1546L27.7236 51.233L53.1656 8.77741L52.0597 7.59042V4.58447L24.5446 50.2493L21.6815 92.9714Z" fill="#F1C0C0"/>
    <path opacity="0.1" d="M23.2767 92.9671H25.1548L27.7238 51.2329L53.1658 8.77732L52.0599 7.59033L25.817 50.5968L23.2767 92.9671Z" fill="black"/>
    <path d="M17.4352 93.3189L83.3585 98.3636L83.4148 98.3677L147.214 94.4441L147.262 94.4413V91.7472L76.9633 90.4572L18.3131 90.4009H17.8844L17.8377 90.7031L17.4352 93.3189Z" fill="#F1C0C0"/>
    <path opacity="0.1" d="M17.4352 93.3189L83.3585 98.3636L83.4148 98.3677L147.214 94.4441L147.262 94.3919V91.8036H147.206L83.3585 93.9357L18.3131 90.4009H18.3034L18.188 90.4764L17.8377 90.7031L17.4352 93.3189Z" fill="black"/>
    <path opacity="0.1" d="M17.4352 93.319L83.3585 98.3637V93.9359L18.188 90.4766L17.8377 90.7032L17.4352 93.319Z" fill="black"/>
    <path d="M52.0514 7.53399L81.1148 38.7282L80.2163 93.5991L82.6851 93.8972L82.7263 93.9027H85.1951L85.4905 41.0843L139.912 59.2629L140.83 91.6304L142.816 91.853L143.49 91.9285L141.932 57.0181L85.0412 37.0453L53.847 4.61597H52.0514V7.53399Z" fill="#F1C0C0"/>
    <path opacity="0.1" d="M85.2667 40.0747L85.4907 41.0845L139.912 59.263L140.83 91.6305L142.817 91.8531L141.259 58.5898L85.2667 40.0747Z" fill="black"/>
    <path opacity="0.1" d="M52.0514 7.53399L81.1148 38.7282L80.2163 93.5991L82.6851 93.8972L83.3583 36.9326L52.0514 4.61597V7.53399Z" fill="black"/>
    <path d="M85.3727 62.0959L105.333 66.0265L105.34 66.0279L140.3 72.9149L141.9 72.2733L141.895 72.1606L141.79 69.9282L85.3933 58.5322L85.3727 62.0959Z" fill="#F1C0C0"/>
    <path opacity="0.1" d="M105.339 66.0278L140.299 72.9149L141.9 72.2733L141.894 72.1606L105.339 66.0278Z" fill="black"/>
    <path d="M106.677 48.1611L107.216 77.8826L107.495 93.1308L109.953 93.0484L111.5 92.9961L111.019 48.5911L109.953 48.2367L109.72 48.1611H106.677Z" fill="#F1C0C0"/>
    <path opacity="0.1" d="M106.698 48.1543V48.1612L107.216 77.8827L107.495 93.1308L109.953 93.0484V48.1543H106.698Z" fill="black"/>
    <path d="M68.1774 55.7515C68.3216 55.8298 68.4594 55.9194 68.5895 56.0194C68.7434 56.1541 68.8817 56.3057 69.0017 56.4714C69.591 57.2338 70.1351 58.12 70.0774 59.0817C70.0786 59.2216 70.0522 59.3604 69.9996 59.49C69.947 59.6197 69.8694 59.7377 69.771 59.8373C69.5279 60.0447 69.1789 60.0543 68.8602 60.0543C68.514 60.0543 68.1499 60.0543 67.8504 59.8757C67.5509 59.6971 67.3009 59.3496 66.9464 59.3578C66.8964 59.3661 66.8453 59.3661 66.7953 59.3578C66.673 59.318 66.6483 59.1572 66.5686 59.0556C66.4312 58.8728 66.1414 58.9182 65.9257 58.9979C65.71 59.0775 65.4709 59.1971 65.258 59.105C65.1344 59.0398 65.0333 58.9387 64.9681 58.8151C64.4584 57.9908 64.3499 57.0003 64.2537 56.0427C64.1946 55.4602 63.744 53.4737 64.9873 53.9257C65.5369 54.1235 66.0507 54.5192 66.5508 54.809L68.1774 55.7515Z" fill="#3F3D56"/>
    <path d="M66.9484 55.948C67.0595 56.0279 67.194 56.0683 67.3307 56.0628C67.4674 56.0573 67.5983 56.0063 67.7026 55.9177C67.9072 55.7329 68.0376 55.48 68.0695 55.2061C68.2068 55.1635 68.2769 55.3435 68.3648 55.4534C68.5187 55.6402 68.8319 55.6375 68.9721 55.8367C69.0696 55.9741 69.0476 56.165 69.1163 56.3203C69.2056 56.5209 69.4268 56.6253 69.5779 56.7874C69.7206 56.9645 69.8237 57.1702 69.8802 57.3905L70.1055 58.0664C70.2133 58.3475 70.2826 58.6419 70.3116 58.9415C70.3258 59.0914 70.31 59.2425 70.2652 59.3861C70.2204 59.5298 70.1474 59.6631 70.0505 59.7782C69.7483 60.1038 69.2523 60.1382 68.8141 60.1285C68.6677 60.1317 68.5216 60.1145 68.3799 60.0777C67.9911 59.9568 67.7425 59.5653 67.6394 59.171C67.5364 58.7767 67.5474 58.3632 67.4869 57.9593C67.4217 57.5625 67.3062 57.1757 67.1435 56.808C67.0226 56.5222 66.6901 56.0963 66.6956 55.7927C66.7945 55.7927 66.866 55.8834 66.9484 55.948Z" fill="#3F3D56"/>
    <path d="M67.4418 54.5563C67.3776 54.3612 67.3401 54.1583 67.3305 53.9532C67.3305 53.541 67.5187 53.1536 67.7083 52.7854L66.138 52.9983C65.9484 53.0244 65.7369 53.0629 65.6297 53.2209C65.589 53.2992 65.5677 53.3861 65.5677 53.4744C65.5677 53.5626 65.589 53.6496 65.6297 53.7278C65.7084 53.8846 65.771 54.0489 65.8165 54.2183C65.8201 54.3665 65.8371 54.5141 65.8674 54.6593C65.9162 54.7659 65.9848 54.8624 66.0693 54.9437C66.5186 55.441 66.8552 56.0276 67.1904 56.6088C67.1808 56.5923 68.1369 55.8518 68.0985 55.61C68.0765 55.4726 67.8004 55.3078 67.7124 55.1759C67.591 54.9844 67.4997 54.7755 67.4418 54.5563Z" fill="#BE6F72"/>
    <path d="M80.9064 49.1887V50.5419L57.734 55.0619L56.5319 55.79H52.3843V55.0275L75.1514 49.5267L80.9064 49.1887Z" fill="#F1C0C0"/>
    <path opacity="0.1" d="M80.9064 50.542L57.734 55.0619L56.5319 55.79H52.3843L75.3204 50.8813L80.9064 50.542Z" fill="black"/>
    <path d="M62.3013 87.6037C62.0431 87.2911 61.6867 87.075 61.2901 86.9907C60.8934 86.9064 60.4799 86.9588 60.1169 87.1394C60.0392 87.176 59.9706 87.2295 59.9163 87.296C59.7789 87.4883 59.8669 87.7535 59.8792 87.9912C59.9108 88.5709 59.4492 89.0421 59.0343 89.4474C58.8117 89.6645 58.5851 89.8967 58.4848 90.192C58.3845 90.4874 58.4587 90.8625 58.7279 91.0163C58.8455 91.0752 58.9733 91.1107 59.1044 91.1207C59.5435 91.2064 59.9938 91.2189 60.437 91.1578C60.8752 91.074 61.3053 90.8254 61.4948 90.4215C61.5314 90.312 61.592 90.212 61.6721 90.1288C61.9139 89.9379 62.2848 90.1618 62.5596 90.0258C62.7862 89.9131 62.7959 89.7359 62.7986 89.5024C62.8069 88.8567 62.7107 88.1258 62.3013 87.6037Z" fill="#F68260"/>
    <path d="M65.5987 87.579C65.7677 88.0241 65.791 88.509 65.813 88.9844C65.8254 89.2592 65.8336 89.5532 65.6852 89.7853C65.5369 90.0175 65.247 90.1398 64.9695 90.1975C64.3966 90.3156 63.733 90.2044 63.3635 89.7496C63.0804 89.402 63.0214 88.9253 63.0736 88.4747C63.1175 88.1051 63.211 87.6724 62.9458 87.41C62.8771 87.3399 62.7878 87.2905 62.7246 87.2149C62.5872 87.0473 62.6092 86.7945 62.6834 86.5884C62.78 86.3914 62.8525 86.1833 62.8991 85.9688C62.9101 85.8672 64.7593 86.0403 64.9296 86.1241C65.1618 86.2381 65.1261 86.4291 65.1961 86.6599C65.2937 86.9813 65.4805 87.2712 65.5987 87.579Z" fill="#F68260"/>
    <path d="M65.9375 67.8426C66.3002 68.0776 66.4404 68.5392 66.4967 68.9678C66.6519 70.1424 66.3799 71.3294 66.3593 72.515C66.3401 74.176 66.8209 75.8672 66.4101 77.4759C66.1642 78.4376 66.3731 79.5367 66.1423 80.508C66.0736 80.7965 65.9472 81.0685 65.8812 81.357C65.7438 81.9821 65.8881 82.6361 66.0818 83.2474C66.1436 83.4122 66.1829 83.5846 66.1986 83.7599C66.1893 84.0297 66.1208 84.2942 65.998 84.5347L65.1737 86.4842C65.0817 86.7026 64.719 86.7383 64.4868 86.7672C64.0499 86.8194 63.5622 86.8565 63.2146 86.5858C62.867 86.3152 62.7832 85.8618 62.7297 85.4387C62.6269 84.6264 62.581 83.8079 62.5923 82.9891C62.6074 82.7755 62.5884 82.5607 62.5359 82.3531C62.4604 82.1181 62.2941 81.9148 62.2488 81.6661C62.1911 81.3447 62.3546 81.0287 62.415 80.7045C62.4565 80.4083 62.4519 80.1076 62.4013 79.8128C62.3477 79.3732 62.2859 78.9336 62.2158 78.4967C62.1169 77.8853 62.2584 77.2822 62.3532 76.6695C62.4425 76.0939 62.3285 75.5072 62.2158 74.9357C62.2256 75.3996 62.1677 75.8624 62.0441 76.3096C61.9713 76.528 61.8669 76.7368 61.8037 76.9594C61.5221 77.9582 62.1224 79.0064 62.0372 80.0409C61.9974 80.5245 61.8078 81.0026 61.8614 81.4793C61.8985 81.8282 62.0606 82.1483 62.1719 82.4808C62.2832 82.8133 62.3409 83.1938 62.1719 83.5043C61.7254 84.3479 62.0592 85.495 62.459 86.3605C62.5402 86.514 62.6108 86.6728 62.6706 86.8359C62.7887 87.226 62.6898 87.6451 62.7214 88.0517C62.6064 88.0705 62.4885 88.0629 62.3769 88.0293C62.2652 87.9957 62.1627 87.9372 62.0771 87.858C62.0166 87.7948 61.9672 87.7206 61.9081 87.6547C61.743 87.4974 61.5476 87.3753 61.3338 87.2961C61.2083 87.2258 61.0653 87.1929 60.9217 87.2013C60.7707 87.2435 60.6349 87.3278 60.5301 87.4445C60.3943 87.564 60.2501 87.6737 60.0988 87.7728C60.0343 87.8224 59.9589 87.8558 59.879 87.8704C59.8387 87.8766 59.7976 87.87 59.7613 87.8515C59.7251 87.833 59.6956 87.8035 59.677 87.7673C59.6684 87.7444 59.6633 87.7203 59.6619 87.6959C59.6109 87.2811 59.5838 86.8636 59.5808 86.4457C59.5808 85.7272 58.7208 85.2326 58.6123 84.5223C58.5257 83.9494 58.6865 83.3656 58.6329 82.7886C58.6068 82.4918 58.5244 82.2006 58.5298 81.9038C58.5298 81.7115 58.5738 81.5233 58.5889 81.3323C58.6015 81.1203 58.5983 80.9077 58.5793 80.6962L58.5367 80.0326C58.4955 79.3773 58.4502 78.7083 58.1919 78.1093C57.8856 77.4099 57.7043 76.6622 57.6561 75.9002C57.6286 75.4193 57.6465 74.9385 57.5915 74.4563C57.5421 74.0208 57.4322 73.588 57.4638 73.1511C57.4899 72.8132 57.6011 72.4862 57.6272 72.1482C57.6808 71.4984 57.4335 70.8664 57.2398 70.2441C57.0461 69.6217 56.9032 68.9321 57.1574 68.3317C57.1937 68.2332 57.2542 68.1453 57.3332 68.0762C57.4307 68.0117 57.5416 67.9704 57.6575 67.9553C60.0146 67.4601 62.4307 67.3061 64.8316 67.4978C65.223 67.52 65.6029 67.6384 65.9375 67.8426Z" fill="#3F3D56"/>
    <path d="M58.1385 53.2511C59.354 53.2511 60.3394 52.2658 60.3394 51.0502C60.3394 49.8347 59.354 48.8494 58.1385 48.8494C56.923 48.8494 55.9376 49.8347 55.9376 51.0502C55.9376 52.2658 56.923 53.2511 58.1385 53.2511Z" fill="#BE6F72"/>
    <path d="M57.7134 53.7992C57.745 53.9251 57.745 54.0567 57.7134 54.1825C57.6788 54.2705 57.6301 54.3521 57.5692 54.4243C57.3561 54.6992 57.1204 54.9556 56.8644 55.1909C56.9948 55.4822 57.2296 55.714 57.5224 55.8408C57.8132 55.9645 58.1183 56.0518 58.4305 56.1004C58.5864 56.1414 58.7486 56.1526 58.9086 56.1334C59.0561 56.0963 59.1957 56.033 59.3208 55.9465L60.5435 55.2143C60.728 55.1144 60.8988 54.9911 61.0518 54.8475C61.2761 54.617 61.403 54.309 61.4063 53.9875C61.412 53.9299 61.3963 53.8722 61.3623 53.8254C61.3154 53.7846 61.2567 53.76 61.1947 53.7553C60.7647 53.6605 60.4254 53.3115 60.233 52.9159C60.0591 52.5103 59.9466 52.0811 59.8992 51.6423L58.5954 52.3293C58.4017 52.4323 58.2094 52.5353 58.0088 52.6246C57.881 52.6823 57.6227 52.7304 57.5321 52.8472C57.359 53.0629 57.6681 53.5396 57.7134 53.7992Z" fill="#BE6F72"/>
    <path d="M56.8719 54.7911C56.6863 54.9433 56.5414 55.1392 56.4502 55.3613C56.365 55.636 56.4502 55.9259 56.5271 56.1979C56.8877 57.3574 57.1632 58.5415 57.3514 59.741C57.4668 60.5653 57.5094 61.402 57.5657 62.2359C57.6811 63.9367 57.8487 66.6487 58.0727 68.3385C58.897 68.3756 59.7007 68.1352 60.5181 68.0472C62.0458 67.8851 63.6188 68.2561 65.1149 67.9099C64.7522 66.4769 64.3895 64.0301 64.0269 62.5986C63.8664 62.0346 63.7551 61.4577 63.6944 60.8745C63.6628 60.4554 63.682 60.035 63.6875 59.6133C63.6999 58.789 63.6545 57.9647 63.6092 57.1404C63.557 56.1787 63.5048 55.217 63.2767 54.2759C63.2609 54.156 63.2047 54.0451 63.1174 53.9613C62.98 53.861 62.8014 53.8968 62.6379 53.9187C62.1373 53.9823 61.6307 53.8622 61.2119 53.5808C61.0305 53.4571 60.7874 53.306 60.6184 53.4434C60.5463 53.5263 60.4987 53.6276 60.481 53.736C60.4062 53.9304 60.2908 54.1065 60.1425 54.2527C59.9942 54.3989 59.8164 54.5117 59.621 54.5837C59.2295 54.7255 58.8195 54.8097 58.4038 54.8337C58.2765 54.861 58.1439 54.8461 58.026 54.7911C57.8309 54.6716 57.8171 54.2416 57.5712 54.2127C57.3555 54.188 57.0176 54.6524 56.8719 54.7911Z" fill="#3F3D56"/>
    <path d="M60.1229 58.146C59.6159 57.661 59.3934 56.9576 59.0238 56.36C58.7721 55.9582 58.4506 55.6046 58.0745 55.3159C57.8854 55.191 57.7119 55.0439 57.5579 54.8777C57.4274 54.7169 57.3285 54.5026 57.1307 54.4408C57.0489 54.423 56.9641 54.4253 56.8834 54.4476C56.8028 54.4698 56.7287 54.5113 56.6677 54.5685C56.5466 54.684 56.4319 54.806 56.3242 54.934C55.7417 55.5371 54.7182 55.6209 54.2566 56.3188C54.1321 56.4668 54.0474 56.6441 54.0107 56.834C53.8778 57.8498 54.1404 58.8778 54.7443 59.7053C54.8612 59.8971 55.0408 60.0427 55.2526 60.1174C55.2239 60.3736 55.2578 60.6329 55.3515 60.8731C55.6059 61.7426 55.9185 62.594 56.2871 63.4215C56.199 63.7452 56.1374 64.0756 56.103 64.4093C56.0069 65.2487 56.0962 66.1005 56.0055 66.9413C55.9313 67.6282 55.7307 68.2972 55.7239 68.9855C55.7239 69.0954 55.7335 69.226 55.8283 69.2823C55.8787 69.3082 55.9352 69.3201 55.9917 69.3166L57.6816 69.3675C58.6625 69.3963 59.653 69.4252 60.6188 69.2438C60.7474 69.2248 60.8722 69.1854 60.9884 69.127C61.3153 68.9443 61.4239 68.5322 61.4761 68.1654C61.5443 67.6896 61.5714 67.2088 61.5571 66.7283C61.7618 67.3754 62.005 68.0445 62.6232 68.3247C62.9502 68.4731 63.3239 68.4621 63.6825 68.4525C64.4553 68.4181 65.2255 68.3387 65.9891 68.2148C66.0362 68.2207 66.084 68.2154 66.1286 68.1995C66.1733 68.1835 66.2136 68.1573 66.2463 68.123C66.279 68.0887 66.3032 68.0472 66.317 68.0018C66.3308 67.9564 66.3338 67.9085 66.3257 67.8617L66.334 67.1116C66.3504 65.5881 65.9726 64.1318 65.8256 62.6151C65.7789 62.137 65.7831 61.6534 65.6663 61.1849C65.6182 60.9885 65.5481 60.7961 65.5055 60.5983C65.4689 60.4046 65.4459 60.2086 65.4368 60.0117L65.3297 58.5005C65.2789 57.8012 65.206 57.1266 65.1525 56.4287C65.123 55.7491 65.0245 55.0743 64.8585 54.4147C64.7389 54.0025 64.4903 53.5354 64.0603 53.4846C63.8308 53.4585 63.6083 53.5588 63.3898 53.6288C62.8529 53.7979 62.2767 53.7955 61.7412 53.622C61.5758 53.5566 61.4034 53.5105 61.2274 53.4846C61.1388 53.4725 61.0486 53.4842 60.9661 53.5185C60.8835 53.5528 60.8116 53.6084 60.7576 53.6797C60.7043 53.787 60.6792 53.9062 60.6848 54.0259C60.6202 55.3983 60.5007 56.812 60.1229 58.146Z" fill="#F68260"/>
    <path d="M57.9121 58.1873C57.2788 57.5197 56.6289 56.8396 55.8129 56.4151C55.4914 56.2475 55.126 56.1211 54.7701 56.1843C54.4143 56.2475 54.0832 56.5566 54.0997 56.9179C54.1107 57.1418 54.2467 57.3397 54.2893 57.5595C54.3388 57.8068 54.2673 58.0706 54.3443 58.3096C54.4068 58.4671 54.5002 58.6105 54.619 58.7314L55.5917 59.884C56.0038 60.3649 56.416 60.8526 56.9463 61.185C57.4766 61.5175 58.1635 61.6727 58.746 61.4365C59.1605 61.2438 59.5051 60.9275 59.7324 60.5311C59.9742 60.1464 60.1446 59.726 60.3713 59.329C60.7241 58.6946 61.1896 58.1299 61.7451 57.6625C61.4593 57.5883 61.1008 57.4839 60.9208 57.2504C60.8696 57.1761 60.8258 57.097 60.7903 57.0141L60.5677 56.5332C60.492 56.5293 60.4163 56.5411 60.3454 56.5678C60.2745 56.5945 60.2098 56.6356 60.1556 56.6885C60.0601 56.7988 59.9578 56.903 59.8492 57.0003C59.6555 57.146 59.3931 57.1858 59.2172 57.352C59.1492 57.4234 59.0876 57.5006 59.0331 57.5828C58.9001 57.7577 58.7313 57.902 58.538 58.0063C58.3446 58.1105 58.1312 58.1723 57.9121 58.1873Z" fill="#3F3D56"/>
    <path d="M61.7957 55.3147C62.2725 54.445 62.2505 53.4023 62.3865 52.42C62.4012 52.1599 62.4925 51.9099 62.6489 51.7015C62.9237 51.391 63.4086 51.3869 63.8235 51.4267C63.9458 51.4405 64.0983 51.4982 64.0914 51.6204C64.0818 51.6643 64.0604 51.7046 64.0296 51.7372C63.6275 52.2562 63.391 52.8843 63.3509 53.5397C63.5666 53.6894 63.9005 53.3817 64.1079 53.5397C64.2453 53.6551 64.1821 53.8831 64.0997 54.048C63.9082 54.4299 63.7109 54.8091 63.5075 55.1855C63.3452 55.5173 63.1335 55.8226 62.8797 56.0909C62.7052 56.2585 62.5005 56.3904 62.3233 56.5553C61.9111 56.9413 61.6625 57.4867 61.2366 57.8631C61.2006 57.9021 61.1519 57.927 61.0992 57.9332C61.045 57.9293 60.9939 57.9065 60.955 57.8686C60.7422 57.6956 60.5657 57.4822 60.4356 57.2408C60.2735 56.9413 60.2983 56.8534 60.5538 56.6418C61.0319 56.264 61.4976 55.8587 61.7957 55.3147Z" fill="#BE6F72"/>
    <path d="M57.1159 57.5965C57.1983 57.6474 57.3 57.7051 57.3906 57.6625C57.4277 57.6401 57.4592 57.6095 57.4827 57.5732C57.6397 57.3636 57.7708 57.1357 57.8729 56.8945C57.8904 56.8604 57.9003 56.8229 57.9017 56.7846C57.9017 56.6967 57.8234 56.6321 57.7506 56.5813C57.3604 56.3326 56.941 56.1333 56.5018 55.9878C56.1391 55.8504 55.7599 55.7309 55.3752 55.7652C55.2307 55.7749 55.0896 55.8138 54.9605 55.8794C54.8313 55.945 54.7168 56.0361 54.6237 56.1472C54.349 56.5002 54.8092 56.6074 55.0977 56.7352C55.7654 57.0388 56.488 57.2146 57.1159 57.5965Z" fill="#F68260"/>
    <path opacity="0.1" d="M56.6831 59.932C56.6784 59.9634 56.6812 59.9954 56.6913 60.0254C56.7013 60.0555 56.7183 60.0828 56.7408 60.1051C56.7806 59.91 56.7284 59.7039 56.7696 59.5075C56.8301 59.2121 57.1172 58.9895 57.1419 58.6928C56.6158 58.5898 56.6872 59.6133 56.6831 59.932Z" fill="black"/>
    <path opacity="0.2" d="M80.9066 49.1887V50.5419L75.3206 50.8813L75.1516 49.5267L80.9066 49.1887Z" fill="black"/>
    <path d="M56.1578 51.3772C56.5068 51.0928 56.3048 50.4965 56.5411 50.1146C56.6785 49.9058 56.9107 49.7959 57.1388 49.7025C57.414 49.5737 57.7089 49.4919 58.0111 49.4607C58.1625 49.4461 58.3152 49.4659 58.4579 49.5184C58.6006 49.571 58.7297 49.655 58.8354 49.7643C58.9247 49.8659 58.9852 49.9896 59.069 50.0954C59.1728 50.2188 59.308 50.3118 59.4604 50.3645C59.6128 50.4173 59.7766 50.4278 59.9345 50.3949C60.1172 50.3537 60.3068 50.2149 60.2945 50.0281C60.2738 49.9144 60.2158 49.8109 60.1296 49.7341L59.7367 49.2986C59.2902 48.804 58.7942 48.2792 58.1389 48.1555C57.6828 48.069 57.2157 48.1912 56.7761 48.3382C56.5988 48.3973 56.3996 48.4852 56.3502 48.6652C56.3172 48.7889 56.3667 48.9235 56.3378 49.0485C56.2815 49.2972 55.9628 49.381 55.8144 49.5898C55.666 49.7986 55.7113 50.0459 55.6688 50.2767C55.6262 50.5075 55.5025 50.7328 55.4874 50.9719C55.4778 51.1161 55.5506 51.384 55.7127 51.4362C55.8748 51.4884 56.0575 51.2054 56.1578 51.3772Z" fill="#3F3D56"/>
    <path d="M60.1611 49.8303C60.0453 49.2258 59.7956 48.655 59.4303 48.1597C59.1054 47.6969 58.6536 47.3381 58.1292 47.1266C57.8671 47.0241 57.5852 46.9824 57.3047 47.0045C57.0242 47.0267 56.7523 47.1121 56.5095 47.2543C56.1491 47.5116 55.8686 47.8654 55.7003 48.2751C55.3445 49.0417 55.2126 49.9786 55.6261 50.715C55.791 50.5144 56.074 50.6051 56.324 50.5323C56.6373 50.443 56.9024 50.2342 57.2005 50.1036C58.1004 49.7066 59.1995 50.0281 60.1611 49.8303Z" fill="#FED253"/>
    <path opacity="0.1" d="M55.8362 49.7877C55.8046 49.5405 55.784 49.2533 55.9598 49.0775C55.9686 49.0667 55.9797 49.0581 55.9924 49.0524C56.005 49.0467 56.0188 49.044 56.0327 49.0445C56.0449 49.0485 56.0562 49.0549 56.0659 49.0634C56.0756 49.0719 56.0834 49.0823 56.089 49.094C56.1905 49.2542 56.2769 49.4234 56.3473 49.5995C56.2449 49.5759 56.1378 49.5836 56.0398 49.6216C55.9418 49.6595 55.8575 49.726 55.7977 49.8125" fill="black"/>
    <path opacity="0.1" d="M59.0474 49.0896L58.9979 48.5992C58.9899 48.5588 58.9933 48.5169 59.0075 48.4783C59.0282 48.4459 59.0602 48.4224 59.0972 48.4123C59.1343 48.4021 59.1738 48.4061 59.2081 48.4233C59.2757 48.4608 59.3314 48.5165 59.3688 48.5841C59.4832 48.7596 59.5781 48.9471 59.6518 49.1432C59.4306 49.1006 59.2029 49.1034 58.9828 49.1515" fill="black"/>
    <path opacity="0.1" d="M60.2759 68.9954V70.1164L59.3294 70.1796H54.3506V68.9954H60.2759Z" fill="black"/>
    <path d="M60.2766 68.9951V70.1794H54.3512L38.6099 50.4608V49.5293H41.9098L60.2766 68.9951Z" fill="#F1C0C0"/>
    <path opacity="0.1" d="M60.2766 68.9951V70.1794H54.3512L38.6099 50.4608V49.5293H41.9098L60.2766 68.9951Z" fill="black"/>
    <path opacity="0.1" d="M60.2766 68.9951V70.1794H54.3512L38.6099 50.4608V49.5293L54.4364 68.9951H60.2766Z" fill="black"/>
    <path d="M40.6738 88.7593C40.6841 88.815 40.6829 88.8722 40.6701 88.9275C40.6573 88.9827 40.6333 89.0347 40.5995 89.0802C40.5658 89.1257 40.5229 89.1638 40.4738 89.192C40.4246 89.2202 40.3702 89.238 40.3138 89.2442C39.9319 89.3734 39.5266 89.5011 39.256 89.7937C38.9854 90.0864 38.9318 90.629 39.256 90.8667C39.4217 90.9667 39.612 91.0185 39.8055 91.0165C40.4279 91.059 41.0763 91.0508 41.641 90.787C42.0449 90.6002 42.4254 90.2815 42.8692 90.3103C43.0986 90.324 43.3432 90.4312 43.5479 90.3268C43.7526 90.2224 43.8103 89.9311 43.8116 89.688C43.8168 89.1803 43.7403 88.6752 43.5849 88.1919C43.5643 88.1259 42.6906 88.0751 42.5862 88.0545L41.5269 87.9171C41.3264 87.891 40.8936 87.7399 40.7356 87.9075C40.5776 88.0751 40.6738 88.56 40.6738 88.7593Z" fill="#F68260"/>
    <path d="M46.9939 85.3302C47.0387 85.5776 47.1115 85.8191 47.211 86.0501C47.358 86.4237 47.5462 86.8208 47.9061 87.0021C48.2331 87.1656 48.6342 87.1065 48.9667 86.9513C49.1055 86.8938 49.2271 86.8016 49.3198 86.6834C49.427 86.4965 49.4749 86.2813 49.4572 86.0665C49.4572 85.5349 49.4256 84.9853 49.1824 84.5127C48.9736 84.1006 48.6095 83.7462 48.604 83.29L47.3525 83.5318C47.2855 83.5383 47.2216 83.5635 47.1684 83.6046C47.1287 83.6464 47.1012 83.6982 47.0887 83.7544C46.955 84.2685 46.9229 84.8037 46.9939 85.3302Z" fill="#F68260"/>
    <path d="M32.0484 72.2787C31.9961 72.7211 32.0181 73.195 32.2489 73.577C32.4797 73.9589 32.9661 74.2117 33.3865 74.0592C33.408 74.0537 33.4282 74.0439 33.4459 74.0305C33.4636 74.017 33.4784 74.0001 33.4895 73.9809C33.5007 73.9344 33.4943 73.8855 33.4716 73.8435C33.286 73.3482 33.3013 72.8 33.5142 72.3158C33.5417 72.2526 33.6008 72.1784 33.6654 72.2031C33.6924 72.2168 33.7141 72.239 33.7272 72.2663C33.7937 72.3814 33.827 72.5126 33.8233 72.6455C33.804 72.7659 33.8003 72.8882 33.8124 73.0096C33.8385 73.1277 33.9648 73.239 34.0748 73.1882C34.1065 73.1687 34.134 73.1429 34.1555 73.1124C34.177 73.0819 34.192 73.0474 34.1998 73.0109C34.5061 72.1248 34.3674 71.1563 34.2273 70.2289C34.2284 70.2076 34.2249 70.1863 34.2169 70.1666C34.209 70.1468 34.1968 70.129 34.1812 70.1144C34.1656 70.0999 34.147 70.089 34.1267 70.0824C34.1064 70.0758 34.0849 70.0738 34.0638 70.0764C33.4153 70.0119 33.0609 69.8566 32.6899 70.4597C32.3712 70.9681 32.0484 71.6673 32.0484 72.2787Z" fill="#F68260"/>
    <path d="M39.6292 70.0242C39.4369 70.8237 39.2432 71.6329 39.2308 72.4545C39.2342 72.9662 39.2728 73.4771 39.3462 73.9835L39.4905 75.1733C39.5399 75.5744 39.588 75.9742 39.6581 76.3712C39.7028 76.5758 39.7272 76.7843 39.7309 76.9936C39.7174 77.2 39.6848 77.4046 39.6334 77.605C39.547 78.0256 39.4987 78.4533 39.4891 78.8826C39.474 79.5695 39.5592 80.2565 39.6128 80.9434C39.7197 82.3122 39.7036 83.6879 39.5647 85.0539C39.5092 85.4226 39.5892 85.7989 39.79 86.1131C39.8714 86.2122 39.9385 86.3223 39.9892 86.4401C40.0922 86.7547 39.8518 87.0693 39.79 87.3921C39.7504 87.6439 39.8124 87.901 39.9624 88.1071C40.1123 88.3132 40.3379 88.4513 40.5896 88.4912C41.6886 88.6217 42.8179 88.5626 43.8084 89.0655C43.9129 88.7605 43.6848 88.4143 43.7892 88.1038C43.8552 87.9114 44.0365 87.7864 44.1601 87.6243C44.3263 87.3773 44.4091 87.0837 44.3964 86.7863C44.4013 86.3981 44.3323 86.0125 44.1931 85.6501C44.0763 85.3479 43.9087 85.0497 43.9184 84.7255C43.9184 84.5662 43.9747 84.3986 43.9101 84.2516C43.8658 84.1671 43.8057 84.092 43.7329 84.0304C43.3223 83.5806 43.07 83.0089 43.0144 82.4024C42.9608 81.8005 42.9802 81.1944 43.0721 80.5972C43.1394 80.0284 43.2301 79.428 43.5914 78.9843C43.4238 77.6387 43.5223 76.2734 43.8813 74.9658C43.917 74.8449 43.9733 74.7048 44.097 74.6759C44.1461 74.6709 44.1957 74.6778 44.2416 74.6959C44.2875 74.7141 44.3284 74.7431 44.3607 74.7804C44.5764 74.9823 44.6795 75.2749 44.7729 75.5552C44.8759 75.8588 44.9803 76.183 44.902 76.4935C44.869 76.6309 44.8031 76.7518 44.7646 76.8837C44.6811 77.1487 44.6957 77.435 44.8058 77.6901C44.8595 77.7834 44.8932 77.8868 44.9048 77.9937C44.892 78.0856 44.8642 78.1747 44.8223 78.2575C44.7714 78.4201 44.7552 78.5916 44.7748 78.7608C44.7945 78.93 44.8495 79.0932 44.9364 79.2398C45.1115 79.5316 45.3275 79.7967 45.5779 80.027C45.4583 80.5543 45.4892 81.1046 45.6672 81.6152C45.6801 81.6382 45.6883 81.6635 45.6913 81.6896C45.6944 81.7158 45.6923 81.7423 45.6851 81.7677C45.6604 81.8199 45.5972 81.8391 45.5477 81.8762C45.4103 81.9889 45.4955 82.2018 45.5876 82.3488C45.8398 82.7523 46.1184 83.1387 46.4215 83.5056C46.6962 83.8339 46.6715 84.4672 47.0809 84.5854C47.253 84.6226 47.4309 84.6226 47.603 84.5854C48.0069 84.5236 48.4575 84.4068 48.6553 84.0496C48.7364 83.9026 48.7694 83.724 48.8957 83.6141C49.0221 83.5042 49.1856 83.485 49.2557 83.3531C49.3258 83.2212 49.2474 83.0481 49.2708 82.8956C49.2942 82.7431 49.4274 82.6208 49.47 82.4601C49.5717 82.0891 49.1389 81.7842 49.0798 81.405C48.9947 80.8554 49.6871 80.4433 49.6582 79.8938C49.5978 78.6999 49.5593 77.5005 49.4975 76.3067C49.4199 75.2373 49.4089 74.1641 49.4645 73.0933C49.5126 72.427 49.6019 71.7291 49.3574 71.1095C49.0057 70.2357 48.0357 69.7453 47.0974 69.6518C46.1591 69.5584 45.2235 69.781 44.2934 69.9266C42.7498 70.1645 41.1815 70.1973 39.6292 70.0242Z" fill="#3F3D56"/>
    <path d="M42.4182 56.8932C43.6337 56.8932 44.619 55.9078 44.619 54.6923C44.619 53.4768 43.6337 52.4915 42.4182 52.4915C41.2027 52.4915 40.2173 53.4768 40.2173 54.6923C40.2173 55.9078 41.2027 56.8932 42.4182 56.8932Z" fill="#FBBEBE"/>
    <path d="M41.5229 57.304C41.4481 57.4781 41.3224 57.6255 41.1623 57.7268C41.0021 57.828 40.8151 57.8785 40.6258 57.8714C40.5461 58.2011 40.737 58.5336 40.9555 58.7932C41.4091 59.3211 41.9952 59.7184 42.6535 59.9442C43.3119 60.17 44.0185 60.2161 44.7005 60.0778C44.966 60.0303 45.2178 59.9252 45.4383 59.77C45.7356 59.5218 45.9352 59.1762 46.0016 58.7946C46.0648 58.4157 46.0828 58.0306 46.0551 57.6475C46.0629 57.5718 46.0412 57.4961 45.9947 57.4359C45.9398 57.3933 45.8718 57.371 45.8024 57.3727C45.338 57.3315 44.853 57.3136 44.445 57.0856C44.037 56.8575 43.7471 56.3423 43.9436 55.9192C43.912 55.9851 43.1096 56.0167 43.0039 56.0305C42.6728 56.0772 42.3417 56.1294 42.012 56.1898C41.8535 56.1985 41.6969 56.2281 41.5462 56.2778C41.347 56.3808 41.4212 56.33 41.4679 56.5168C41.538 56.8026 41.641 57.0073 41.5229 57.304Z" fill="#FBBEBE"/>
    <path d="M43.1974 58.6419C42.901 58.6453 42.6053 58.6126 42.3168 58.5444C42.0255 58.4763 41.7688 58.305 41.5942 58.0622C41.4925 57.9083 41.4266 57.7146 41.2645 57.628C40.9993 57.4907 40.6971 57.7228 40.4855 57.9358C40.2929 58.1458 40.0696 58.3255 39.8233 58.4688C39.5293 58.6241 39.1859 58.679 38.9083 58.8617C38.6915 59.0256 38.5055 59.2265 38.3588 59.4552L36.4121 62.1067C35.6304 63.1728 34.9503 64.3172 34.2538 65.4424C33.6507 66.4164 33.3347 67.5375 32.88 68.5885C32.8439 68.6528 32.829 68.7268 32.8374 68.8C32.8539 68.8715 32.9404 68.9292 33.0009 68.888C32.7962 69.0913 32.9761 69.4375 32.928 69.7233C32.8734 69.9232 32.7594 70.1019 32.6011 70.2357C32.9035 70.1963 33.2104 70.2107 33.5078 70.2783C33.8151 70.3654 34.1051 70.5048 34.3651 70.6904C34.5313 70.6643 34.5162 70.369 34.6398 70.2591C34.714 70.1945 34.8239 70.2027 34.9215 70.1835C35.2883 70.1121 35.4339 69.6711 35.7156 69.4224C35.9505 69.2149 36.2829 69.1476 36.5316 68.9525C36.9355 68.6352 37.0221 68.0705 37.2336 67.6021C37.4136 67.205 37.6966 66.8588 37.8546 66.4522C37.9576 66.1884 38.0071 65.9026 38.1541 65.6595C38.389 65.2665 38.8314 65.0577 39.2532 64.8695C39.5197 64.75 39.8027 64.6263 40.0898 64.6456C40.0747 65.2844 39.9937 65.9136 40.1324 66.5373C40.1805 66.7572 40.2478 66.9715 40.3055 67.1899C40.5679 68.1736 40.6298 69.1985 40.6421 70.2123C41.2733 70.0679 41.918 69.9906 42.5655 69.9815C43.0752 69.9664 43.5835 70.0324 44.0932 70.0228C44.6977 70.0118 45.2953 69.895 45.8998 69.8538C46.5043 69.8126 47.1362 69.8538 47.6706 70.1285C47.6272 69.2579 47.6516 68.3851 47.7435 67.5183L47.8891 66.1527C47.9219 65.7559 47.983 65.362 48.0718 64.9739C48.1515 64.6607 48.2669 64.3584 48.3548 64.0466C48.6639 62.9475 48.6076 61.7743 48.5485 60.6299C48.5183 60.0419 48.2916 59.4635 48.0251 58.9401C47.9286 58.7456 47.8184 58.5583 47.6954 58.3795C47.3733 57.9358 46.9441 57.5808 46.4478 57.3478C45.9514 57.1148 45.4042 57.0113 44.857 57.0469C44.7871 57.0491 44.7182 57.064 44.6537 57.0909C44.5377 57.1651 44.4472 57.2729 44.3941 57.4C44.1098 57.9109 43.6974 58.3389 43.1974 58.6419Z" fill="#3F3D56"/>
    <path d="M40.482 55.4217C40.5439 55.2843 40.7101 55.2334 40.8118 55.1235C41.0068 54.9147 40.9189 54.5809 40.9491 54.2992C40.9986 53.8871 41.3407 53.5423 41.7322 53.3953C42.1315 53.2671 42.5564 53.2402 42.9687 53.3169C43.1671 53.3314 43.3588 53.3952 43.5265 53.5024C43.5979 53.5546 43.6638 53.6219 43.7312 53.67C43.8539 53.7442 44.0007 53.7675 44.1403 53.7349C44.28 53.7023 44.4013 53.6164 44.4785 53.4955C43.9922 52.9103 43.4536 52.2921 42.7145 52.1121C42.461 52.0603 42.2026 52.0359 41.9438 52.0393C41.6017 52.0324 41.2486 52.0269 40.9327 52.1574C40.5027 52.3347 40.2004 52.7427 40.0452 53.1823C39.9094 53.6279 39.8368 54.0904 39.8295 54.5561C39.8013 54.8669 39.8013 55.1796 39.8295 55.4903C39.8826 55.9147 40.0403 56.3193 40.2883 56.6677C40.3219 56.7218 40.3693 56.766 40.4257 56.7955C41.0522 57.0703 40.4312 55.5357 40.482 55.4217Z" fill="#3F3D56"/>
    <path d="M44.407 53.1562C44.3314 52.5091 43.8698 51.9747 43.3794 51.5447C42.984 51.1718 42.5132 50.8884 41.9986 50.7135C41.4807 50.561 40.8845 50.594 40.4407 50.9031C40.0835 51.1518 39.8568 51.5474 39.6824 51.9459C39.4532 52.416 39.3396 52.9342 39.3513 53.4571C39.3856 53.9764 39.6384 54.5026 40.089 54.765C40.2511 54.5259 40.5328 54.4023 40.8034 54.3047C41.983 53.8572 43.186 53.4738 44.407 53.1562Z" fill="#FED253"/>
    <path opacity="0.1" d="M40.2404 52.887C40.2843 52.887 40.3132 52.9324 40.3352 52.9695C40.447 53.1437 40.5431 53.3276 40.6223 53.519C40.4615 53.5533 40.1854 53.5918 40.1057 53.4503C40.0631 53.3789 40.114 52.8802 40.2404 52.887Z" fill="black"/>
    <path opacity="0.1" d="M43.3708 52.5766C43.3378 52.6082 43.2993 52.5436 43.2993 52.4969V51.9639C43.2984 51.949 43.3018 51.9343 43.309 51.9213C43.3147 51.9148 43.3216 51.9094 43.3294 51.9057C43.3372 51.9019 43.3456 51.8997 43.3543 51.8993C43.4656 51.8869 43.5576 51.9817 43.6291 52.0724C43.7375 52.2193 43.8318 52.3762 43.9107 52.5409L43.3296 52.523" fill="black"/>
    <path d="M50.6246 61.4035C50.751 61.2835 50.886 61.1729 51.0285 61.0724C51.409 60.8183 51.8693 60.718 52.2965 60.5559C52.7238 60.3938 53.1579 60.1314 53.3241 59.7055C53.4074 59.4392 53.4345 59.1585 53.4038 58.8812C53.4078 58.7651 53.3872 58.6494 53.3434 58.5418C53.2911 58.4468 53.2166 58.3657 53.1263 58.3055C52.5466 57.8769 51.769 57.8426 51.0491 57.8865C49.462 57.9849 47.9063 58.3733 46.4591 59.0323C46.3826 59.0576 46.3155 59.1055 46.2668 59.1697C46.2386 59.2292 46.2258 59.2949 46.2297 59.3607C46.2041 59.7658 46.2568 60.1721 46.3849 60.5573C46.5745 61.0463 46.9647 61.4406 47.1282 61.9393C47.2024 62.1633 47.2271 62.4009 47.2917 62.6262C47.3446 62.8589 47.4822 63.0636 47.6777 63.2005C48.2204 63.5247 48.7328 63.0892 49.1092 62.7513L50.6246 61.4035Z" fill="#3F3D56"/>
    <path d="M43.5166 63.3061L42.8201 61.7867C42.7179 61.5761 42.6298 61.359 42.5563 61.1369C42.4766 60.8717 42.4381 60.5969 42.3639 60.3304C42.1194 59.4429 41.5026 58.7038 41.2017 57.8342C41.1827 57.7556 41.1439 57.6833 41.089 57.624C41.0451 57.5929 40.9949 57.5719 40.942 57.5624C40.889 57.5529 40.8346 57.5551 40.7827 57.569C40.3623 57.6418 40.0339 57.9619 39.6493 58.1433C39.4707 58.2257 39.2783 58.2806 39.0997 58.3754C39.0104 58.4177 38.9313 58.4788 38.8678 58.5544C38.8043 58.63 38.7578 58.7185 38.7315 58.8137C38.6889 59.0239 38.7934 59.2258 38.8813 59.4305C39.255 60.2741 39.3401 61.2165 39.3566 62.1397C39.369 62.7607 39.3374 63.427 38.9706 63.9257C38.2658 64.8874 38.7164 66.2997 38.9802 67.4633C39.0118 67.6007 39.0489 67.7491 39.0709 67.8947C39.0941 68.077 39.1047 68.2606 39.1025 68.4443C39.1025 69.0611 39.0681 69.6972 38.8098 70.2563C39.0648 70.392 39.3459 70.4716 39.6341 70.4899C40.4319 70.5916 41.2328 70.663 42.037 70.7042C42.2889 70.7279 42.543 70.7149 42.7912 70.6657C43.086 70.5861 43.3458 70.4105 43.5297 70.1667C43.7136 69.9228 43.8109 69.6247 43.8065 69.3194C43.8504 69.6999 43.9315 70.1135 44.2076 70.3772C44.4838 70.641 44.8863 70.6809 45.2614 70.7015C46.3199 70.7576 47.3812 70.7277 48.4349 70.6122C48.5022 70.6091 48.5683 70.5938 48.63 70.5668C48.8333 70.4652 48.8443 70.1849 48.8278 69.9596C48.7976 69.5378 48.766 69.1161 48.7152 68.697C48.6721 68.4299 48.65 68.1598 48.6492 67.8892C48.6702 67.6109 48.7162 67.335 48.7866 67.0649C48.9707 66.2077 49.1163 65.3325 49.0545 64.4547C49.0301 64.2408 49.0214 64.0254 49.0284 63.8103C49.0641 63.3254 49.3197 62.8638 49.2716 62.3815C49.1342 60.9637 49.0229 59.5089 48.6272 58.1405C48.5558 57.896 48.4651 57.6336 48.2522 57.4934C47.9774 57.3094 47.5914 57.4055 47.2768 57.2887C47.1291 57.22 46.9888 57.1367 46.8578 57.0401C46.5731 56.862 46.2467 56.7616 45.9112 56.7488C45.6584 56.7392 45.3768 56.7955 45.2243 56.9989C45.1536 57.1133 45.1069 57.2409 45.0869 57.3739C44.8877 58.212 44.6541 59.0404 44.4206 59.8688L44.1966 60.6629L43.5963 62.7951C43.5372 63.0217 43.577 63.0918 43.5166 63.3061Z" fill="#F68260"/>
    <path d="M47.0293 54.9875L60.3183 68.9526V70.1368H54.393L44.4066 57.1032" fill="#F1C0C0"/>
    <path opacity="0.1" d="M47.0293 54.9875L60.3183 68.9526V70.1368H54.393L44.4066 57.1032" fill="black"/>
    <path opacity="0.1" d="M44.6182 56.9192L44.6608 56.9343L54.4782 68.9526H60.3183V70.1368H54.393L44.4066 57.1033L44.6182 56.9192Z" fill="black"/>
    <path d="M46.1477 57.2133C45.6668 57.4235 45.1324 57.6928 44.9881 58.1983C44.9597 58.287 44.9535 58.3814 44.9703 58.4731C45.0054 58.5809 45.0724 58.6755 45.1624 58.7444C45.2525 58.8133 45.3613 58.8533 45.4745 58.8591C45.7007 58.8646 45.9257 58.8235 46.1353 58.7382L48.9723 57.8013C49.0492 57.7766 49.1371 57.7395 49.1564 57.6639C49.1613 57.6164 49.1517 57.5685 49.1289 57.5265C49.041 57.3122 48.9544 56.874 48.7703 56.7242C48.6192 56.6033 48.3197 56.6459 48.137 56.6486C47.4336 56.6541 46.7728 56.9385 46.1477 57.2133Z" fill="#F68260"/>
    <path d="M48.6773 57.9125C49.1552 57.9111 49.6304 57.9848 50.0854 58.1309C50.5425 58.2793 50.9474 58.5559 51.2518 58.9277C51.3405 59.0317 51.4035 59.155 51.4359 59.2877C51.4634 59.4251 51.9113 59.5075 51.8124 59.6009C52.1132 59.5528 52.0418 59.6943 52.3468 59.6916C52.6518 59.6888 52.9815 59.6105 53.1642 59.3674C53.2912 59.1676 53.3477 58.9312 53.3249 58.6956C53.3289 58.5325 53.298 58.3704 53.2343 58.2202C53.0969 57.9317 52.7809 57.7765 52.4897 57.6432L50.036 56.5208C49.8937 56.4451 49.7409 56.3909 49.5826 56.36C49.4495 56.3475 49.3153 56.3507 49.1828 56.3697L48.0714 56.4974C48.3145 56.6547 48.5124 56.8726 48.6456 57.1297C48.7788 57.3867 48.8427 57.674 48.8311 57.9633" fill="#3F3D56"/>
  </g>
  <defs>
    <clipPath id="clip0_181_1240">
      <rect width="161.813" height="99.53" fill="white"/>
    </clipPath>
  </defs>
</svg>