<svg xmlns="http://www.w3.org/2000/svg" width="17" height="17" viewBox="0 0 17 17" fill="none">
  <g clip-path="url(#clip0_181_356)">
    <path d="M14.2868 0.0488758H3.56669C2.09346 0.0488758 0.902344 1.24 0.902344 2.71322V13.4333C0.902344 14.9065 2.09346 16.0977 3.56669 16.0977H14.2868C15.76 16.0977 16.9511 14.9065 16.9511 13.4333V2.71322C16.9511 1.24 15.76 0.0488758 14.2868 0.0488758ZM6.04297 7.07022H11.8105C11.9359 7.38367 11.9986 7.72847 11.9986 8.07327C11.9986 9.76591 10.6194 11.1138 8.92673 11.1138C7.23409 11.1138 5.88624 9.76591 5.88624 8.07327C5.88624 7.72847 5.91759 7.38367 6.04297 7.07022ZM14.945 7.07022V13.0885C14.945 13.6527 14.5062 14.0916 13.942 14.0916H3.91149C3.34728 14.0916 2.90844 13.6527 2.90844 13.0885V7.07022H4.4757C4.41301 7.38367 4.38167 7.72847 4.38167 8.07327C4.38167 10.5809 6.41911 12.6183 8.92673 12.6183C11.4344 12.6183 13.5031 10.5809 13.5031 8.07327C13.5031 7.72847 13.4405 7.38367 13.3778 7.07022H14.945ZM14.945 3.55955C14.945 3.84165 14.7256 4.06107 14.4435 4.06107H13.4405C13.1583 4.06107 12.9389 3.84165 12.9389 3.55955V2.5565C12.9389 2.27439 13.1583 2.05497 13.4405 2.05497H14.4435C14.7256 2.05497 14.945 2.27439 14.945 2.5565V3.55955Z" fill="#E3813A"/>
  </g>
  <defs>
    <clipPath id="clip0_181_356">
      <rect width="16.0488" height="16.0488" fill="white" transform="matrix(1 0 0 -1 0.902344 16.0977)"/>
    </clipPath>
  </defs>
</svg>