<svg width="46" height="38" viewBox="0 0 46 38" fill="none" xmlns="http://www.w3.org/2000/svg">
<path d="M40.5243 12.6456C39.3514 14.5096 39.3604 16.5464 38.142 19.456C37.251 19.3651 36.3599 19.3287 35.4688 19.3651C35.6052 18.6649 35.6688 17.9557 35.6598 17.2465C35.6325 15.8462 35.487 14.446 35.2233 13.073C36.9691 12.7365 38.7421 12.5911 40.5243 12.6456ZM34.8232 17.5102C34.8232 18.1467 34.7687 18.7831 34.6505 19.4105C32.2591 19.6015 29.9587 20.4198 27.9765 21.7746C29.6768 19.9288 30.6224 17.5102 30.6315 15.0006C30.6315 14.9188 30.6315 14.846 30.6224 14.7642C31.7772 14.0913 33.0138 13.5913 34.305 13.273C34.5959 14.6733 34.7687 16.0917 34.8232 17.5102ZM26.9036 22.9294C29.104 21.2291 31.7499 20.2289 34.5232 20.0288C33.7321 22.9839 31.559 24.166 29.8405 24.166C28.7312 24.166 27.6764 23.7204 26.9036 22.9294ZM30.0314 15.7644C30.0314 18.8741 28.2856 21.1563 26.749 22.6293C26.5308 22.1201 26.4217 21.5837 26.4307 21.029C26.4307 19.1559 27.5219 16.8737 30.0132 15.1643C30.0314 15.3643 30.0314 15.5644 30.0314 15.7644ZM26.0943 20.9381C26.0943 21.3927 26.1671 21.8474 26.3216 22.2747C25.8852 21.4382 25.6579 20.5016 25.6579 19.556C25.6579 16.4736 27.049 13.5913 28.913 11.2545C29.4313 12.2819 29.7768 13.3821 29.9496 14.5096C27.5582 16.119 26.0943 18.3649 26.0943 20.9381ZM27.4855 23.7113C28.1856 24.1932 29.0221 24.4569 29.8678 24.4751C32.5501 24.4751 34.5595 22.8203 35.3233 19.9834C36.1689 19.9561 37.0236 19.9925 37.8693 20.0834C37.8693 20.0925 37.8602 20.0925 37.8602 20.0925C36.3872 23.284 33.6321 24.9752 30.9225 24.9752C29.6586 25.0298 28.422 24.5751 27.4855 23.7113ZM34.3504 6.62631C33.7048 8.59031 33.8958 10.6271 34.2049 12.6002C32.9411 12.9457 31.7317 13.4458 30.5952 14.1004C30.4679 12.8457 30.1223 11.6182 29.5768 10.4725C30.9407 8.93583 32.5592 7.6265 34.3504 6.62631ZM25.6033 4.13493C26.2125 6.79907 27.5764 8.69033 28.6312 10.6907C27.1309 12.5456 26.0852 14.7278 25.6033 17.0646H25.6579V4.13493H25.6033ZM27.6764 24.166C28.6675 24.9298 29.8768 25.3389 31.1225 25.3389C34.0867 25.3389 37.0055 23.6386 38.7331 20.1925C40.1788 20.4198 41.6063 20.7926 42.9702 21.3109C39.8878 22.1292 36.5326 25.8572 32.3137 25.8572C30.3769 25.8572 28.813 25.2116 27.7855 24.2387L27.6764 24.166ZM25.2396 20.0197C25.7852 23.2931 28.3402 26.3391 32.7501 26.3391C37.842 26.3391 42.1792 21.6019 45.107 21.4746C45.3252 21.4655 45.3252 21.3654 45.1524 21.3018C43.1884 20.4835 41.1426 19.9015 39.0422 19.5742C40.3152 16.6918 40.3425 14.1823 41.57 12.2183C41.6791 12.0455 41.6609 11.991 41.4608 11.9728C39.3423 11.7909 37.2055 11.9273 35.1233 12.3819C34.7687 10.1542 34.505 7.97202 35.3597 5.47155C35.4233 5.2806 35.387 5.18967 35.1869 5.2806C32.9501 6.43536 30.9589 8.00839 29.304 9.89965C27.9128 7.11731 25.8852 4.55319 25.3305 0.579715C25.2942 0.334215 25.1669 0.3524 25.1669 0.579715V18.7013C25.1669 20.2925 24.0576 21.029 23.0028 21.029C21.9481 21.029 20.8388 20.2834 20.8388 18.7013V0.588808C20.8388 0.361492 20.7115 0.343307 20.6751 0.588808C20.1205 4.55319 18.0928 7.1264 16.7107 9.89965C15.0559 7.99929 13.0555 6.43536 10.8278 5.2806C10.6369 5.18967 10.5914 5.27151 10.655 5.47155C11.5188 7.98111 11.2552 10.1542 10.8915 12.3819C8.80925 11.9273 6.67248 11.7909 4.5539 11.9728C4.36296 11.991 4.34477 12.0455 4.44479 12.2183C5.67229 14.1823 5.70866 16.6918 6.97254 19.5742C4.87214 19.9015 2.81721 20.4835 0.862299 21.3018C0.689539 21.3745 0.689539 21.4746 0.907762 21.4746C3.82649 21.5928 8.17276 26.3391 13.2646 26.3391C17.6836 26.3391 20.2296 23.2931 20.7751 20.0197L20.6842 20.0379C21.0388 20.8381 21.8026 21.3745 22.6755 21.4382L22.6846 21.3836C21.4844 21.5109 20.5205 22.4202 20.5205 23.584C20.5205 25.4389 22.3391 26.0391 22.8755 27.4393C22.9119 27.5302 22.9301 27.6303 23.0119 27.6303C23.0938 27.6303 23.1028 27.5393 23.1483 27.4393C23.6939 26.0391 25.5033 25.4389 25.5033 23.584C25.4487 22.402 24.5122 21.4473 23.3393 21.3836L23.3483 21.4382C24.2212 21.3745 24.985 20.8381 25.3396 20.0379L25.2396 20.0197ZM10.7914 13.0821C10.5278 14.4551 10.3823 15.8553 10.355 17.2556C10.355 17.9648 10.4186 18.674 10.5459 19.3742C9.65486 19.3378 8.76379 19.3651 7.87271 19.4651C6.6543 16.5554 6.66339 14.5187 5.49044 12.6547C7.2635 12.5911 9.03656 12.7365 10.7914 13.0821ZM11.7007 13.2821C12.9919 13.6003 14.2284 14.1095 15.3832 14.7733C15.3832 14.8551 15.3741 14.9279 15.3741 15.0097C15.3741 17.5193 16.3288 19.9379 18.0292 21.7837C16.047 20.4289 13.7465 19.6106 11.3552 19.4196C11.237 18.7922 11.1824 18.1558 11.1824 17.5193C11.2461 16.0917 11.4188 14.6824 11.7007 13.2821ZM16.1743 24.1751C14.4558 24.1751 12.2826 22.9839 11.4916 20.0379C14.2648 20.2289 16.9108 21.2381 19.1112 22.9385C18.3383 23.7204 17.2836 24.166 16.1743 24.1751ZM16.0015 15.1734C18.4929 16.8828 19.584 19.165 19.584 21.0381C19.5931 21.5837 19.484 22.1292 19.2658 22.6384C17.7291 21.1654 15.9833 18.8832 15.9833 15.7735C15.9833 15.5644 15.9833 15.3643 16.0015 15.1734ZM16.0652 14.5187C16.2288 13.3821 16.5834 12.2819 17.1017 11.2635C18.9657 13.5913 20.3569 16.4827 20.3569 19.5651C20.3569 20.5107 20.1296 21.4382 19.6931 22.2838C19.8477 21.8564 19.9204 21.4018 19.9204 20.9472C19.9204 18.3649 18.4565 16.119 16.0652 14.5187ZM15.0922 24.9752C12.3826 24.9752 9.62758 23.284 8.15458 20.0925C8.15458 20.0834 8.14549 20.0834 8.14549 20.0834C8.9911 19.9925 9.83671 19.9561 10.6914 19.9834C11.4552 22.8203 13.4647 24.4751 16.147 24.4751C17.0017 24.466 17.8291 24.2023 18.5293 23.7113C17.6018 24.5751 16.3561 25.0298 15.0922 24.9752ZM16.438 10.4725C15.8924 11.6182 15.5469 12.8457 15.4196 14.1004C14.283 13.4458 13.0737 12.9457 11.8098 12.6002C12.119 10.618 12.3099 8.59031 11.6643 6.62631C13.4647 7.63559 15.0741 8.93583 16.438 10.4725ZM20.3478 4.13493V17.0646H20.4023C19.9204 14.7278 18.8839 12.5456 17.3745 10.6907C18.4292 8.68124 19.7931 6.79907 20.4023 4.13493H20.3478ZM18.2292 24.2296C17.2017 25.2025 15.6378 25.8481 13.7011 25.8481C9.4821 25.8481 6.12693 22.1201 3.04453 21.3109C4.41751 20.7926 5.83596 20.4198 7.28169 20.1925C9.00929 23.6386 11.928 25.3389 14.8922 25.3389C16.1379 25.3389 17.3563 24.9207 18.3383 24.166L18.2292 24.2296Z" fill="#FF6B00"/>
<path d="M13.2679 32.4893C13.186 32.4984 13.1497 32.4893 13.1315 32.4347C13.0405 31.9437 12.6132 31.5891 12.1222 31.5891C11.6948 31.5346 11.3129 31.8437 11.2584 32.262C11.2584 32.2802 11.2584 32.3074 11.2493 32.3256C11.2493 32.8712 11.7039 33.1076 12.304 33.2985C13.1678 33.5804 13.7316 33.935 13.7316 34.7715C13.7316 35.6081 13.0769 36.1991 11.9494 36.1991C11.5221 36.2173 11.0856 36.1263 10.6946 35.9536C10.6037 35.9172 10.5401 35.8445 10.5128 35.7626C10.4128 35.4626 10.3582 35.1443 10.3673 34.8261C10.3673 34.7715 10.4219 34.7534 10.4855 34.7443C10.5492 34.7352 10.5946 34.7534 10.6037 34.7988C10.7856 35.2807 11.1675 35.9263 11.9312 35.9263C12.5314 35.9263 12.9132 35.5717 12.9132 35.0898C12.9132 34.6806 12.7678 34.3442 11.9676 34.0805C11.1675 33.8168 10.5037 33.3985 10.5037 32.5893C10.5037 31.8892 11.0765 31.2891 12.204 31.2891C12.5132 31.2982 12.8223 31.3345 13.1315 31.4073C13.2406 31.4345 13.2497 31.4527 13.277 31.5255C13.3588 31.8073 13.3952 32.0983 13.3952 32.3893C13.3861 32.4529 13.3497 32.4802 13.2679 32.4893Z" fill="#FF6B00"/>
<path d="M26.1703 34.8436C26.2339 34.8527 26.2703 34.88 26.2612 34.9163C26.2249 35.2528 26.1248 35.5892 25.9794 35.8893C25.9521 35.9438 25.9066 35.9802 25.843 35.9984C25.4247 36.1438 24.9883 36.2166 24.5427 36.2257C22.9697 36.2257 21.7604 35.4346 21.7604 33.7616C21.7604 32.134 23.0424 31.2793 24.5245 31.2793C25.0064 31.2884 25.4793 31.3611 25.943 31.4702C26.0339 31.4884 26.043 31.5066 26.0521 31.5884C26.0612 31.7885 26.0794 32.1431 26.143 32.5705C26.1521 32.6159 26.1248 32.6341 26.0521 32.6523C25.9703 32.6614 25.9339 32.6523 25.9248 32.6068C25.7975 31.9612 25.2065 31.5157 24.5518 31.5703C23.6516 31.5703 22.7424 32.2067 22.7424 33.6616C22.7424 35.1709 23.688 35.9165 24.6064 35.9165C25.2701 35.9256 25.8611 35.4983 26.0703 34.8709C26.0703 34.8436 26.1066 34.8345 26.1703 34.8436Z" fill="#FF6B00"/>
<path d="M27.9979 33.7706C28.0252 32.3794 29.1618 31.2701 30.553 31.2974C31.9078 31.3156 33.008 32.4158 33.0261 33.7706C32.9898 35.1617 31.8259 36.2528 30.4347 36.2165C29.1072 36.1801 28.0343 35.1072 27.9979 33.7706ZM30.5166 35.9164C31.3713 35.9164 32.0532 34.9981 32.0532 33.7706C32.0532 32.634 31.4986 31.6065 30.5166 31.6065C29.5346 31.6065 28.9799 32.6431 28.9799 33.7706C28.9708 34.9981 29.6528 35.9164 30.5166 35.9164Z" fill="#FF6B00"/>
<path d="M6.77579 33.7632V35.0816C6.77579 35.8363 6.71214 35.8545 6.37571 35.9L6.22114 35.9181C6.17567 35.9272 6.16658 35.9727 6.16658 36.0273C6.17567 36.0818 6.18476 36.1273 6.23023 36.1182C6.23023 36.1182 6.84853 36.1 7.18495 36.1C7.52138 36.1 8.13968 36.1182 8.13968 36.1182C8.18514 36.1182 8.20333 36.0818 8.20333 36.0273C8.21242 35.9727 8.19423 35.9181 8.14877 35.9181L7.9942 35.9C7.65777 35.8545 7.59412 35.8363 7.59412 35.0816V32.4448C7.59412 31.6901 7.65777 31.6719 7.9942 31.6264L8.14877 31.6082C8.19423 31.5991 8.20333 31.5537 8.20333 31.4991C8.20333 31.4446 8.18514 31.4082 8.13968 31.4082C8.13968 31.4082 7.52138 31.4264 7.18495 31.4264C6.84853 31.4264 6.23023 31.4082 6.23023 31.4082C6.18476 31.4082 6.16658 31.4446 6.16658 31.4991C6.15749 31.5537 6.17567 31.6082 6.22114 31.6082L6.37571 31.6264C6.71214 31.6719 6.77579 31.6901 6.77579 32.4448V33.7632Z" fill="#FF6B00"/>
<path d="M18.9235 35.7168C19.0053 35.8259 18.9417 35.8804 18.8508 35.8986L18.6689 35.9259C18.6235 35.935 18.6144 35.9714 18.6235 36.035C18.6326 36.0986 18.6507 36.135 18.6871 36.1259C18.6871 36.1259 19.2872 36.1077 19.6146 36.1077C19.951 36.1077 20.5511 36.1259 20.5511 36.1259C20.5966 36.1259 20.6147 36.0986 20.6238 36.0259C20.6329 35.9532 20.6057 35.9168 20.5693 35.9168C20.2783 35.9259 20.0055 35.7986 19.8328 35.5713C19.3781 35.0621 18.478 33.9073 18.1143 33.4254C18.0688 33.38 18.0688 33.2981 18.1143 33.2527L18.1234 33.2436C18.3234 33.0253 18.9781 32.3616 19.269 32.0979C19.56 31.8069 19.9419 31.6342 20.3511 31.5978C20.3874 31.5887 20.4147 31.5432 20.4056 31.4796C20.3965 31.425 20.3783 31.3887 20.3329 31.3978C20.3329 31.3978 19.8237 31.4159 19.5509 31.4159C19.2781 31.4159 18.7689 31.3978 18.7689 31.3978C18.7235 31.3978 18.7053 31.4432 18.7053 31.4887C18.6962 31.5523 18.7144 31.5887 18.7508 31.5978L18.9417 31.6524C18.9781 31.6614 19.0054 31.6796 19.0054 31.716C19.0144 31.7978 18.8599 31.9706 18.6598 32.1979C18.378 32.5162 17.887 33.0344 17.6233 33.289C17.405 33.4982 17.3141 33.5345 17.2323 33.4891C17.1686 33.4618 17.1414 33.389 17.1414 33.1708V32.4252C17.1414 31.6705 17.205 31.6524 17.5414 31.6069L17.696 31.5887C17.7415 31.5796 17.7506 31.5342 17.7506 31.4796C17.7415 31.425 17.7324 31.3887 17.6869 31.3887C17.6869 31.3887 17.0686 31.4069 16.7322 31.4069C16.3958 31.4069 15.7775 31.3887 15.7775 31.3887C15.732 31.3887 15.7138 31.425 15.7138 31.4796C15.7047 31.5342 15.7229 31.5887 15.7684 31.5887L15.923 31.6069C16.2594 31.6524 16.323 31.6705 16.323 32.4252V35.0621C16.323 35.8168 16.2594 35.835 15.923 35.8804L15.7684 35.8986C15.7229 35.9077 15.7138 35.9532 15.7138 36.0077C15.7138 36.0623 15.732 36.1077 15.7775 36.0986C15.7775 36.0986 16.3958 36.0805 16.7322 36.0805C17.0686 36.0805 17.6869 36.0986 17.6869 36.0986C17.7324 36.0986 17.7506 36.0623 17.7506 36.0077C17.7597 35.9532 17.7415 35.8986 17.696 35.8986L17.5414 35.8804C17.205 35.835 17.1414 35.8168 17.1414 35.0621V34.0073C17.1414 33.8891 17.1868 33.8164 17.2596 33.7982C17.3414 33.78 17.405 33.8164 17.4869 33.9073C17.8779 34.3347 18.6144 35.2985 18.9235 35.7168Z" fill="#FF6B00"/>
<path d="M35.6449 32.3972C36.545 33.3247 37.9362 34.9341 38.9909 36.1979C39.0364 36.2525 39.0819 36.2616 39.1728 36.2252C39.2546 36.1889 39.2637 36.1616 39.2637 36.0979C39.2455 35.7433 39.2364 35.4069 39.2364 35.0886V32.6791C39.2364 31.8426 39.3001 31.6789 39.6365 31.6334L39.7911 31.6153C39.8366 31.6062 39.8456 31.5607 39.8456 31.5062C39.8456 31.4516 39.8275 31.4061 39.782 31.4152C39.5092 31.4334 39.2455 31.4334 39.0637 31.4334C38.8727 31.4334 38.5363 31.4243 38.2635 31.4152C38.2181 31.4152 38.1999 31.4516 38.1999 31.5062C38.1908 31.5607 38.2181 31.6153 38.2544 31.6153C38.8182 31.6425 38.8909 31.7607 38.8909 32.6791V34.8977L38.9455 34.8431C37.9089 33.7884 36.9451 32.6791 36.0449 31.5062C35.9995 31.4425 35.9904 31.4152 35.9085 31.4243C35.4994 31.4425 35.0902 31.4425 34.681 31.4152C34.6356 31.4061 34.6174 31.4516 34.6174 31.5062C34.6083 31.5607 34.6265 31.6062 34.6719 31.6153C35.2175 31.7244 35.3721 31.888 35.3721 32.4518V34.8613C35.3721 35.6979 35.3084 35.8615 34.972 35.907L34.8174 35.9252C34.772 35.9343 34.7629 35.9797 34.7629 36.0343C34.7629 36.0888 34.7811 36.1343 34.8265 36.1252C35.0993 36.107 35.363 36.107 35.5448 36.107C35.7358 36.107 35.9904 36.1161 36.2632 36.1252C36.3086 36.1252 36.3268 36.0888 36.3268 36.0343C36.3359 35.9797 36.3177 35.9252 36.2722 35.9252L36.1177 35.907C35.7812 35.8615 35.7176 35.6979 35.7176 34.8613V32.3609L35.6449 32.3972Z" fill="#FF6B00"/>
<path d="M39.7995 29.9904C39.8813 29.9904 39.945 29.8995 39.945 29.754C39.945 29.6085 39.8813 29.5176 39.7995 29.5176H6.22043C6.1386 29.5176 6.07495 29.6085 6.07495 29.754C6.07495 29.8995 6.1386 29.9904 6.22043 29.9904H39.7995Z" fill="#FF6B00"/>
<path d="M39.7995 38.0002C39.8813 38.0002 39.945 37.9092 39.945 37.7638C39.945 37.6183 39.8813 37.5273 39.7995 37.5273H6.22043C6.1386 37.5273 6.07495 37.6183 6.07495 37.7638C6.07495 37.9092 6.1386 38.0002 6.22043 38.0002H39.7995Z" fill="#FF6B00"/>
<path d="M42.852 28.1865C42.8611 28.732 42.4337 29.1776 41.8881 29.1867C41.3426 29.1958 40.8971 28.7684 40.888 28.2228C40.8789 27.6773 41.3062 27.2317 41.8518 27.2227C41.8609 27.2227 41.87 27.2227 41.87 27.2227C42.4064 27.2227 42.852 27.65 42.852 28.1865ZM41.1244 28.1865C41.1516 28.5956 41.4972 28.9139 41.9154 28.8957C42.3246 28.8684 42.6428 28.5229 42.6247 28.1046C42.6065 27.7046 42.2791 27.3954 41.8791 27.3954C41.4517 27.4136 41.1153 27.7591 41.1244 28.1865ZM41.5517 27.9683C41.5517 27.8682 41.5335 27.8228 41.4699 27.8137H41.4426C41.4244 27.7864 41.4244 27.7409 41.4517 27.7318C41.6063 27.7227 41.7427 27.7137 41.87 27.7137C42.0427 27.7137 42.2519 27.75 42.2519 27.9683C42.2519 28.0592 42.1973 28.141 42.1155 28.1774C42.0973 28.1865 42.0973 28.1956 42.1155 28.2319C42.1609 28.341 42.2246 28.4502 42.3064 28.532C42.3337 28.5502 42.3519 28.5684 42.3701 28.5775C42.3882 28.5775 42.3882 28.6229 42.3701 28.632C42.3337 28.632 42.2973 28.6411 42.2609 28.6411C42.1427 28.6502 42.0336 28.5865 41.9791 28.4865L41.87 28.2956C41.8609 28.2683 41.8336 28.2501 41.8063 28.2501C41.7699 28.2501 41.7609 28.2683 41.7609 28.2865V28.3956C41.7609 28.5047 41.7609 28.5411 41.87 28.5502L41.8881 28.5593C41.9063 28.5684 41.9063 28.6229 41.8881 28.632C41.8154 28.632 41.7518 28.6229 41.6608 28.6229C41.579 28.6229 41.5063 28.632 41.4426 28.632C41.4244 28.6229 41.4244 28.5684 41.4335 28.5593L41.4608 28.5502C41.5426 28.532 41.5426 28.5138 41.5426 28.3956L41.5517 27.9683ZM41.7609 28.1137C41.7609 28.1683 41.7699 28.1683 41.8518 28.1683C41.9336 28.1774 41.9973 28.1137 42.0064 28.041C42.0064 28.0319 42.0064 28.0228 42.0064 28.0228C42.0064 27.9046 41.9518 27.8319 41.8609 27.8319C41.7699 27.8319 41.7609 27.85 41.7609 27.8864V28.1137Z" fill="#FF6B00"/>
</svg>
