<svg xmlns="http://www.w3.org/2000/svg" width="17" height="17" viewBox="0 0 17 17" fill="none">
  <g clip-path="url(#clip0_181_364)">
    <path d="M14.2554 0.0488758H3.59804C2.12481 0.0488758 0.902344 1.27134 0.902344 2.74457V13.402C0.902344 14.8752 2.12481 16.0977 3.59804 16.0977H14.2554C15.7287 16.0977 16.9511 14.8752 16.9511 13.402V2.74457C16.9511 1.27134 15.7287 0.0488758 14.2554 0.0488758ZM6.92064 13.0885H4.91454V6.06717H6.92064V13.0885ZM5.91759 5.06412C5.35337 5.06412 4.91454 4.62529 4.91454 4.06107C4.91454 3.49686 5.35337 3.05802 5.91759 3.05802C6.4818 3.05802 6.92064 3.49686 6.92064 4.06107C6.92064 4.62529 6.4818 5.06412 5.91759 5.06412ZM13.942 13.0885H11.9359V9.07631C11.9359 8.5121 11.497 8.07327 10.9328 8.07327C10.3686 8.07327 9.92978 8.5121 9.92978 9.07631V13.0885H7.92369V6.06717H9.92978V7.32098C10.3373 6.75676 10.9642 6.06717 11.6851 6.06717C12.9389 6.06717 13.942 7.1956 13.942 8.57479V13.0885Z" fill="#E3813A"/>
  </g>
  <defs>
    <clipPath id="clip0_181_364">
      <rect width="16.0488" height="16.0488" fill="white" transform="matrix(1 0 0 -1 0.902344 16.0977)"/>
    </clipPath>
  </defs>
</svg>