<svg xmlns="http://www.w3.org/2000/svg" width="247" height="189" viewBox="0 0 247 189" fill="none">
  <g clip-path="url(#clip0_366_370)">
    <path d="M0.789795 170.521C0.789795 170.727 0.955147 170.892 1.16106 170.892H246.471C246.677 170.892 246.842 170.727 246.842 170.521C246.842 170.316 246.677 170.15 246.471 170.15H1.16106C0.955147 170.15 0.789795 170.316 0.789795 170.521Z" fill="#3F3D56"/>
    <path d="M135.585 65.5316L138.119 49.7187L121.031 42.7618L118.501 66.7945L135.585 65.5316Z" fill="#FFD7B1"/>
    <path d="M131.268 54.8014C140.891 54.8014 148.692 47.0042 148.692 37.3858C148.692 27.7674 140.891 19.9701 131.268 19.9701C121.645 19.9701 113.844 27.7674 113.844 37.3858C113.844 47.0042 121.645 54.8014 131.268 54.8014Z" fill="#FFD7B1"/>
    <path d="M129.879 13.9736C130.385 14.2667 131.059 13.8239 131.221 13.2626C131.383 12.7014 131.193 12.1058 131.009 11.5538C130.697 10.6277 130.382 9.69843 130.07 8.7723C129.402 6.79842 128.694 4.75594 127.253 3.25292C125.072 0.985919 121.609 0.409034 118.492 0.826885C114.489 1.36323 110.536 3.53045 108.677 7.11337C106.814 10.6963 107.607 15.698 110.973 17.9338C106.178 23.4252 104.506 29.5495 104.771 36.8338C105.036 44.1182 112.976 50.8225 118.158 55.9552C119.316 55.2536 120.367 51.97 119.731 50.7757C119.094 49.5814 120.005 48.2 119.219 47.1024C118.433 46.0047 117.771 47.7541 118.57 46.6596C119.072 45.9704 117.11 44.3832 117.859 43.9716C121.472 41.9759 122.673 37.4731 124.944 34.0274C127.68 29.8707 132.366 27.0549 137.323 26.5871C140.053 26.3283 142.939 26.796 145.176 28.3801C147.413 29.9642 148.864 32.7956 148.346 35.4898C149.69 34.124 150.358 32.1252 150.105 30.2293C149.853 28.3334 148.686 26.5746 147.029 25.6111C148.034 22.287 147.173 18.464 144.839 15.8914C142.505 13.3188 133.034 13.7585 129.627 14.4351" fill="#2F2E41"/>
    <path d="M129.349 26.6838C124.835 27.1703 121.574 31.0806 118.823 34.6885C117.238 36.7684 115.575 39.0666 115.616 41.6828C115.656 44.3271 117.425 46.5942 118.271 49.1013C119.653 53.1987 118.305 58.0695 115.017 60.876C118.267 61.4934 121.78 59.058 122.342 55.7994C122.994 52.0075 120.118 48.3466 120.458 44.5111C120.757 41.134 123.421 38.5334 125.683 36.0075C127.945 33.4817 130.073 30.1295 129.031 26.9021" fill="#2F2E41"/>
    <path d="M130.213 186.188C130.213 186.188 92.4632 189.93 89.6554 185.564C86.8475 181.198 127.964 176.833 127.964 176.833L130.213 186.188Z" fill="#FFD7B1"/>
    <path d="M106.144 116.232L105.364 120.37C107.488 123.504 107.691 126.815 106.456 130.264L149.51 130.576C149.048 125.914 148.539 120.919 150.311 116.338L106.144 116.232Z" fill="#FFD7B1"/>
    <path d="M176.665 147L161.05 134.514C158.975 132.855 157.631 130.389 157.365 127.748L154.96 103.964L169.296 99.1871L172.752 122.737L181.366 142.304L176.668 147H176.665Z" fill="#FFD7B1"/>
    <path d="M116.907 64.0005L137.81 63.065L159.961 73.6111L150.913 116.7L105.052 120.13L98.812 72.4199L116.907 64.0005Z" fill="#FF6436"/>
    <path d="M150.311 126.628C153.453 130.766 154.769 140.729 156.104 150.639C156.104 150.639 98.0754 150.327 97.7634 150.327C97.4514 150.327 106.633 129.435 106.633 129.435L150.311 126.628Z" fill="#2F2E41"/>
    <path d="M152.208 147.995L156.108 150.639C156.108 150.639 211.329 146.897 206.65 164.36C201.97 181.822 187.307 184.629 187.307 184.629L128.03 188.059L127.406 178.392C127.406 178.392 70.3126 191.177 65.0089 164.983C59.7052 138.79 97.7672 150.327 97.7672 150.327L152.208 147.995Z" fill="#2F2E41"/>
    <path d="M128.906 168.725C128.906 168.725 130.213 161.865 139.573 164.672C148.933 167.478 154.236 171.22 154.236 171.22L131.773 176.833L128.906 168.725Z" fill="#FFD7B1"/>
    <path d="M152.318 72.8874C152.318 72.8874 162.925 69.1454 166.981 81.3067C171.037 93.4681 170.101 103.447 170.101 103.447L154.502 108.436L152.318 72.8874Z" fill="#FF6436"/>
    <path d="M79.5778 148.899L76.1741 142.906L83.5275 124.611L86.9843 101.058L101.32 105.835L98.8834 129.909C98.6338 132.369 97.3827 134.664 95.4516 136.208L79.5778 148.902V148.899Z" fill="#FFD7B1"/>
    <path d="M103.96 72.8874C103.96 72.8874 93.3522 69.1455 89.2964 81.3068C85.2406 93.4681 86.1766 103.447 86.1766 103.447L101.776 108.436L103.96 72.8874Z" fill="#FF6436"/>
    <path d="M181.176 149.753C185.312 149.753 188.664 144.797 188.664 138.683C188.664 132.57 185.312 127.613 181.176 127.613C177.041 127.613 173.689 132.57 173.689 138.683C173.689 144.797 177.041 149.753 181.176 149.753Z" fill="#FFD7B1"/>
    <path d="M76.0372 151.624C80.1725 151.624 83.5248 146.668 83.5248 140.555C83.5248 134.441 80.1725 129.485 76.0372 129.485C71.9019 129.485 68.5496 134.441 68.5496 140.555C68.5496 146.668 71.9019 151.624 76.0372 151.624Z" fill="#FFD7B1"/>
    <path d="M104.631 159.058L131.773 166.854L137.077 176.209L126.934 178.392" fill="#2F2E41"/>
    <path d="M29.7157 62.3382C32.625 64.3963 35.8916 66.5422 39.5156 68.7757C58.2613 80.3266 84.3044 92.8032 112.847 103.908C141.39 115.012 169.023 123.417 190.655 127.575C201.193 129.601 209.74 130.507 216.058 130.27C222.747 130.019 226.695 128.469 227.791 125.661C229.926 120.192 220.377 111.909 211.989 105.924L211.507 106.598C223.025 114.817 228.534 121.481 227.019 125.361C225.089 130.303 211.893 130.814 190.813 126.762C169.228 122.613 141.646 114.223 113.148 103.136C84.6509 92.0492 58.6555 79.596 39.951 68.0707C21.6843 56.8154 12.3138 47.5251 14.2435 42.5831C15.8456 38.48 25.224 37.4006 40.6512 39.5433L40.7661 38.7232C29.5564 37.1663 15.7218 36.5199 13.4715 42.2828C12.3754 45.0902 14.2306 48.8983 18.9855 53.6013C21.696 56.2822 25.2873 59.2054 29.7157 62.3382Z" fill="#FFC6B5"/>
    <path d="M187.907 97.5142C197.954 92.8885 207.136 88.2427 215.177 83.6961C225.689 77.753 233.678 72.3013 238.921 67.4928C244.473 62.4015 246.726 58.1934 245.618 54.9853C243.46 48.7357 229.232 48.5886 217.676 49.5657L217.754 50.4957C233.624 49.1537 243.207 50.8564 244.738 55.2904C246.688 60.9377 235.747 70.9949 214.719 82.8834C193.188 95.0567 163.422 107.961 130.904 119.219C98.386 130.477 67.0166 138.739 42.5743 142.482C18.7039 146.138 3.89471 144.996 1.94446 139.349C0.325241 134.66 7.57829 126.898 22.3672 117.492L21.8676 116.704C11.1217 123.539 -1.21057 133.068 1.06378 139.654C2.1716 142.862 6.53978 144.777 14.0465 145.348C21.137 145.886 30.7826 145.232 42.7151 143.405C67.2115 139.653 98.6389 131.377 131.209 120.101C151.64 113.027 170.995 105.301 187.907 97.5142Z" fill="#FFC6B5"/>
    <path d="M198.252 71.6791C195.253 71.6791 192.821 69.2445 192.821 66.2414C192.821 63.2382 195.253 60.8036 198.252 60.8036C201.252 60.8036 203.683 63.2382 203.683 66.2414C203.683 69.2445 201.252 71.6791 198.252 71.6791Z" fill="#FF6436"/>
    <path d="M210.495 147.585C207.496 147.585 205.064 145.15 205.064 142.147C205.064 139.144 207.496 136.709 210.495 136.709C213.495 136.709 215.926 139.144 215.926 142.147C215.926 145.15 213.495 147.585 210.495 147.585Z" fill="#FF6436"/>
  </g>
  <defs>
    <clipPath id="clip0_366_370">
      <rect width="246.053" height="187.356" fill="white" transform="translate(0.789795 0.702164)"/>
    </clipPath>
  </defs>
</svg>