<svg xmlns="http://www.w3.org/2000/svg" width="212" height="193" viewBox="0 0 212 193" fill="none">
  <g clip-path="url(#clip0_366_397)">
    <path d="M207.796 188.036C206.605 189.642 205.128 191.016 203.44 192.087C203.081 192.315 202.712 192.53 202.337 192.729H193.512C193.618 192.517 193.721 192.302 193.82 192.087C196.556 186.309 197.414 179.817 196.274 173.526C195.133 167.234 192.05 161.458 187.46 157.01C192.794 158.659 197.724 161.873 200.949 166.432C202.516 168.652 203.631 171.16 204.229 173.811C204.762 168.508 203.915 163.158 201.77 158.28C206.101 161.806 209.473 166.634 210.758 172.069C212.044 177.507 211.111 183.541 207.796 188.036Z" fill="#57B649"/>
    <path d="M211.372 192.999H128.751V192.323H211.494L211.372 192.999Z" fill="#3F3D56"/>
    <path d="M99.8461 85.3898C99.8461 97.7859 95.5185 108.369 87.2832 116.245C81.4394 121.837 72.438 129.674 72.438 137.961V144.817H45.0299V137.961C45.0299 129.588 35.9933 121.734 30.1847 116.245C22.1353 108.645 17.6218 97.3432 17.6218 85.3898V85.1364C17.6572 74.2255 22.0216 63.7755 29.7552 56.0847C37.4887 48.394 47.9581 44.0923 58.8605 44.1259C69.763 44.1595 80.2057 48.5256 87.8917 56.2639C95.5778 64.0022 99.8778 74.4789 99.8461 85.3898Z" fill="#FF6436"/>
    <path d="M72.4377 145.779C72.1827 145.779 71.938 145.678 71.7577 145.497C71.5773 145.317 71.476 145.072 71.476 144.817V137.96C71.476 129.9 79.4192 122.375 85.2195 116.881C85.7003 116.425 86.1687 115.983 86.6181 115.551C94.6415 107.875 98.8825 97.4455 98.8825 85.3904C98.8825 62.8602 81.2474 45.2112 58.7346 45.2112H58.6212C48.0264 45.223 37.8673 49.4326 30.3652 56.9195C22.863 64.4063 18.6281 74.5613 18.5865 85.1642V85.3888C18.5865 97.1946 23.0548 108.187 30.8464 115.547C31.241 115.92 31.651 116.304 32.0719 116.699C37.9468 122.203 45.9929 129.742 45.9929 137.96V144.817C45.9929 145.072 45.8916 145.317 45.7113 145.497C45.5309 145.678 45.2863 145.779 45.0312 145.779C44.7762 145.779 44.5316 145.678 44.3512 145.497C44.1709 145.317 44.0696 145.072 44.0696 144.817V137.96C44.0696 130.576 36.3761 123.368 30.7572 118.102C30.3344 117.706 29.924 117.32 29.526 116.945C21.3516 109.223 16.6631 97.721 16.6631 85.3891V85.1581C16.7272 62.0454 35.5394 43.285 58.6183 43.285H58.7372C69.8368 43.2273 80.5047 47.5846 88.3941 55.3984C96.2835 63.2122 100.748 73.8425 100.806 84.9507C100.807 85.0972 100.807 85.2438 100.806 85.3904C100.806 97.9838 96.3594 108.894 87.9475 116.942C87.4958 117.375 87.0255 117.82 86.5415 118.279C80.9958 123.532 73.3984 130.728 73.3984 137.96V144.817C73.3984 145.072 73.2971 145.317 73.1168 145.497C72.9364 145.678 72.6918 145.779 72.4368 145.779H72.4377Z" fill="#3F3D56"/>
    <path d="M67.8702 158.129H49.5982C49.1731 158.129 48.7654 157.96 48.4648 157.659C48.1642 157.358 47.9954 156.95 47.9954 156.525C47.9954 156.099 48.1642 155.691 48.4648 155.391C48.7654 155.09 49.1731 154.921 49.5982 154.921H67.8702C68.2953 154.921 68.703 155.09 69.0036 155.391C69.3042 155.691 69.473 156.099 69.473 156.525C69.473 156.95 69.3042 157.358 69.0036 157.659C68.703 157.96 68.2953 158.129 67.8702 158.129Z" fill="#FF6436"/>
    <path d="M60.6989 168.876H56.7666C55.4007 168.877 54.0604 168.505 52.8897 167.801C52.7161 167.7 52.5817 167.543 52.5079 167.356C52.4342 167.169 52.4254 166.963 52.4831 166.77C52.5358 166.572 52.6526 166.397 52.8151 166.273C52.9776 166.149 53.1766 166.082 53.3812 166.083H64.0844C64.289 166.082 64.488 166.149 64.6505 166.273C64.813 166.397 64.9298 166.572 64.9825 166.77C65.0402 166.963 65.0314 167.169 64.9577 167.356C64.8839 167.543 64.7494 167.7 64.5759 167.801C63.4052 168.505 62.0649 168.877 60.6989 168.876Z" fill="#3F3D56"/>
    <path d="M67.8736 163.196L49.4931 163.194L49.4362 163.072C49.3819 162.847 49.3797 162.613 49.4297 162.387C49.4797 162.162 49.5806 161.95 49.7246 161.77C49.8707 161.584 50.0569 161.435 50.2692 161.332C50.4815 161.229 50.7143 161.176 50.9501 161.177H66.5159C66.7517 161.176 66.9846 161.229 67.1969 161.332C67.4093 161.435 67.5955 161.584 67.7415 161.77C67.8843 161.948 67.9848 162.156 68.0354 162.379C68.086 162.602 68.0853 162.833 68.0335 163.055L68.0046 163.179L67.8736 163.196Z" fill="#3F3D56"/>
    <path d="M16.2279 47.5795C15.8405 47.5799 15.4661 47.4393 15.1746 47.1839L1.40995 35.1596C1.09463 34.8785 0.902899 34.4842 0.876442 34.0624C0.849985 33.6406 0.990937 33.2254 1.26865 32.907C1.54637 32.5887 1.93841 32.3928 2.35959 32.3621C2.78077 32.3314 3.19705 32.4683 3.51796 32.743L17.2826 44.7673C17.5284 44.982 17.703 45.2667 17.7828 45.5834C17.8626 45.9001 17.8439 46.2336 17.7293 46.5393C17.6146 46.8451 17.4094 47.1085 17.1411 47.2945C16.8729 47.4804 16.5543 47.5799 16.2279 47.5798V47.5795Z" fill="#E4E4E4"/>
    <path d="M98.9579 47.5796C98.6315 47.5798 98.313 47.4802 98.0447 47.2943C97.7764 47.1084 97.5712 46.8449 97.4566 46.5392C97.3419 46.2334 97.3232 45.8999 97.4031 45.5832C97.4829 45.2666 97.6574 44.9819 97.9032 44.7671L111.668 32.7419C111.988 32.4671 112.405 32.3303 112.826 32.361C113.247 32.3917 113.639 32.5876 113.917 32.9059C114.195 33.2243 114.335 33.6395 114.309 34.0613C114.283 34.4831 114.091 34.8774 113.776 35.1585L100.011 47.1828C99.7196 47.4386 99.3454 47.5796 98.9579 47.5796Z" fill="#E4E4E4"/>
    <path d="M72.4379 152.436H45.0298C44.6047 152.436 44.197 152.267 43.8964 151.966C43.5959 151.666 43.427 151.258 43.427 150.832C43.427 150.407 43.5959 149.999 43.8964 149.698C44.197 149.397 44.6047 149.228 45.0298 149.228H72.4379C72.863 149.228 73.2707 149.397 73.5713 149.698C73.8718 149.999 74.0407 150.407 74.0407 150.832C74.0407 151.258 73.8718 151.666 73.5713 151.966C73.2707 152.267 72.863 152.436 72.4379 152.436Z" fill="#FF6436"/>
    <path d="M58.0606 110.532L52.361 144.817H49.1073L54.8967 110.006C54.9664 109.586 55.1999 109.211 55.5459 108.963C55.8918 108.716 56.3219 108.616 56.7415 108.685C57.1611 108.755 57.5357 108.989 57.7831 109.335C58.0305 109.681 58.1303 110.112 58.0606 110.532Z" fill="#E6E6E6"/>
    <path d="M69.0147 144.817H65.761L60.0614 110.532C59.9917 110.112 60.0915 109.681 60.3388 109.335C60.5862 108.989 60.9609 108.755 61.3805 108.685C61.8 108.616 62.2301 108.716 62.5761 108.963C62.9221 109.211 63.1556 109.586 63.2253 110.006L69.0147 144.817Z" fill="#E6E6E6"/>
    <path d="M48.3171 109.386C48.3171 108.961 48.486 108.553 48.7866 108.252C49.0872 107.951 49.4949 107.782 49.92 107.782H67.5486C67.9737 107.782 68.3814 107.951 68.682 108.252C68.9826 108.553 69.1514 108.961 69.1514 109.386C69.1514 109.812 68.9826 110.22 68.682 110.521C68.3814 110.822 67.9737 110.991 67.5486 110.991H49.92C49.4949 110.991 49.0872 110.822 48.7866 110.521C48.486 110.22 48.3171 109.812 48.3171 109.386Z" fill="#E6E6E6"/>
    <path d="M58.7344 31.5677C58.3093 31.5677 57.9016 31.3987 57.601 31.0979C57.3005 30.7971 57.1316 30.3891 57.1316 29.9637V2.53439C57.1316 2.10897 57.3005 1.70098 57.601 1.40016C57.9016 1.09934 58.3093 0.930344 58.7344 0.930344C59.1595 0.930344 59.5672 1.09934 59.8678 1.40016C60.1684 1.70098 60.3372 2.10897 60.3372 2.53439V29.9637C60.3372 30.3891 60.1684 30.7971 59.8678 31.0979C59.5672 31.3987 59.1595 31.5677 58.7344 31.5677Z" fill="#E4E4E4"/>
    <path d="M189.755 188.511H185.825L183.956 173.34H189.755L189.755 188.511Z" fill="#FEB8B8"/>
    <path d="M190.757 192.323H178.085V192.163C178.085 190.854 178.605 189.599 179.53 188.673C180.455 187.747 181.709 187.227 183.017 187.227H190.757L190.757 192.323Z" fill="#2F2E41"/>
    <path d="M159.898 188.381L156.102 187.365L158.211 172.226L163.814 173.726L159.898 188.381Z" fill="#FEB8B8"/>
    <path d="M159.883 192.323L147.641 189.047L147.682 188.892C148.02 187.627 148.846 186.549 149.979 185.894C151.111 185.239 152.457 185.06 153.721 185.399L161.198 187.399L159.883 192.323Z" fill="#2F2E41"/>
    <path d="M192.016 103.492L195.307 107.32L191.05 185.098H181.956L177.372 125.25L163.156 186.703L153.702 184.382L162.298 106.329L192.016 103.492Z" fill="#2F2E41"/>
    <path d="M164.495 53.2774L173.55 48.7309L187.474 48.976L199.457 55.1121L192.639 89.1879L195.584 106.954C184.202 109.859 172.285 109.958 160.856 107.241L160.765 107.219C160.765 107.219 167.533 83.185 164.652 75.8503L164.495 53.2774Z" fill="#E6E6E6"/>
    <path d="M190.691 35.117C190.681 32.3981 189.593 29.7943 187.667 27.8771C185.74 25.9599 183.133 24.886 180.416 24.891C177.699 24.896 175.095 25.9796 173.176 27.904C171.257 29.8283 170.179 32.4361 170.179 35.155C170.179 37.8739 171.257 40.4817 173.176 42.406C175.095 44.3303 177.699 45.4139 180.416 45.419C183.133 45.424 185.74 44.3501 187.667 42.4329C189.593 40.5157 190.681 37.9119 190.691 35.193V35.117Z" fill="#FEB8B8"/>
    <path d="M163.246 78.1214C163.441 78.6223 163.743 79.0744 164.131 79.4458C164.52 79.8172 164.985 80.0988 165.494 80.2709C166.002 80.443 166.543 80.5014 167.077 80.4419C167.611 80.3824 168.125 80.2065 168.583 79.9266L186.969 89.6529L187.564 85.1708L169.699 74.6281C169.178 73.8883 168.404 73.3656 167.523 73.1588C166.643 72.9521 165.717 73.0757 164.922 73.5063C164.127 73.9369 163.517 74.6445 163.208 75.4951C162.899 76.3456 162.912 77.2801 163.246 78.1214H163.246Z" fill="#FEB8B8"/>
    <path d="M187.746 78.8961C187.447 79.3423 187.053 79.7172 186.593 79.9946C186.133 80.272 185.617 80.445 185.083 80.5016C184.549 80.5581 184.009 80.4967 183.501 80.3218C182.993 80.1468 182.53 79.8625 182.144 79.489L162.076 84.954L162.251 79.2635L182.213 74.075C182.883 73.4671 183.753 73.1264 184.657 73.1174C185.561 73.1084 186.438 73.4317 187.12 74.0261C187.802 74.6205 188.242 75.4446 188.358 76.3423C188.473 77.24 188.256 78.1489 187.746 78.8968L187.746 78.8961Z" fill="#FEB8B8"/>
    <path d="M195.545 55.3589L199.457 55.1135C199.457 55.1135 204.038 61.1623 201.497 67.7264C201.497 67.7264 201.937 91.306 191.792 90.3371C181.646 89.3683 178.44 89.3686 178.44 89.3686L181.486 80.8671L188.299 78.762C188.299 78.762 186.199 69.4925 190.174 65.6357L195.545 55.3589Z" fill="#E6E6E6"/>
    <path d="M167.292 55.152L166.739 52.3151C166.739 52.3151 158.584 52.1226 156.972 64.4901C156.972 64.4901 149.638 82.9983 156.826 85.3816C164.014 87.7649 171.921 85.3816 171.921 85.3816L171.326 77.2189L163.418 75.6043C163.418 75.6043 167.503 70.3144 165.279 65.7259L167.292 55.152Z" fill="#E6E6E6"/>
    <path d="M183.986 40.1571C183.231 39.8609 182.396 39.8763 181.599 39.7301C178.748 39.2044 176.549 36.2953 176.82 33.407C176.888 33.0328 176.894 32.6499 176.838 32.2736C176.641 31.4495 175.726 31.0071 174.885 30.9084C174.044 30.8097 173.175 30.936 172.357 30.7169C171.094 30.3784 170.151 29.2256 169.831 27.957C169.558 26.6668 169.701 25.3234 170.237 24.119L170.629 24.9378C171.038 24.5043 171.316 23.9649 171.433 23.3809C171.776 23.3994 172.108 23.5057 172.398 23.6895C172.688 23.8733 172.926 24.1286 173.089 24.4308C173.596 24.6573 173.534 23.4985 174.039 23.2692C174.267 23.2143 174.506 23.2455 174.712 23.3569C175.825 23.7306 177.006 23.1698 178.109 22.7679C180.02 22.0742 182.067 21.8401 184.085 22.0845C185.426 22.2483 186.78 22.645 187.823 23.5024C188.647 24.2499 189.318 25.1516 189.796 26.1567C191.084 28.5655 192.054 31.2228 192.028 33.9555C192.002 36.1923 191.314 38.3713 190.052 40.2174C189.394 41.1753 187.269 44.498 185.857 44.1322C184.083 43.6738 186.109 40.9907 183.986 40.1571Z" fill="#2F2E41"/>
  </g>
  <defs>
    <clipPath id="clip0_366_397">
      <rect width="210.621" height="191.921" fill="white" transform="translate(0.873291 0.796921)"/>
    </clipPath>
  </defs>
</svg>