<svg xmlns="http://www.w3.org/2000/svg" width="17" height="17" viewBox="0 0 17 17" fill="none">
  <g clip-path="url(#clip0_181_348)">
    <path d="M16.9512 3.0893C16.3557 3.37141 15.7288 3.52814 15.0705 3.62217C15.7288 3.21468 16.2617 2.55643 16.5124 1.80415C15.8855 2.18029 15.1646 2.43105 14.4123 2.58778C13.8167 1.96087 12.9704 1.55338 11.9987 1.55338C10.1807 1.55338 8.70744 3.02661 8.70744 4.84464C8.70744 5.0954 8.73878 5.34616 8.80148 5.59692C6.07444 5.47154 3.6295 4.15504 2.0309 2.14894C1.74879 2.65047 1.56072 3.21468 1.56072 3.81024C1.56072 4.93867 2.15628 5.97307 3.03394 6.53728C2.50107 6.53728 1.99955 6.38056 1.56072 6.12979C1.56072 6.16114 1.56072 6.16114 1.56072 6.19248C1.56072 7.75975 2.68915 9.10759 4.19372 9.42105C3.91161 9.48374 3.6295 9.51508 3.31605 9.51508C3.09664 9.51508 2.90856 9.51508 2.68915 9.45239C3.12798 10.7689 4.35045 11.7406 5.79233 11.7406C4.6639 12.6496 3.22202 13.1511 1.6861 13.1511C1.43534 13.1511 1.15323 13.1511 0.902466 13.1198C2.34435 14.0601 4.09968 14.593 5.94906 14.593C11.9987 14.593 15.3213 9.57777 15.3213 5.22078C15.3213 5.0954 15.3213 4.93867 15.3213 4.81329C15.9482 4.34311 16.5124 3.74755 16.9512 3.0893Z" fill="#E3813A"/>
  </g>
  <defs>
    <clipPath id="clip0_181_348">
      <rect width="16.0488" height="16.0488" fill="white" transform="matrix(1 0 0 -1 0.902344 16.0977)"/>
    </clipPath>
  </defs>
</svg>